/* XPM */
static char *_528031461568[] = {
/* columns rows colors chars-per-pixel */
"64 64 225 2 ",
"   c #050503",
".  c #080705",
"X  c #040B04",
"o  c #090906",
"O  c #060B09",
"+  c #0C0D0A",
"@  c #110E0B",
"#  c #150C07",
"$  c #0B120D",
"%  c #07100B",
"&  c #12120E",
"*  c #18170E",
"=  c #0D1510",
"-  c #0F1913",
";  c #141512",
":  c #181714",
">  c #141B14",
",  c #1A1B15",
"<  c #161D19",
"1  c #1C1E19",
"2  c #211F1B",
"3  c #251814",
"4  c #162119",
"5  c #1C221C",
"6  c #192514",
"7  c #22231D",
"8  c #2B251D",
"9  c #212B1C",
"0  c #2D2A1F",
"q  c #312A1F",
"w  c #24321B",
"e  c #1E2621",
"r  c #1D2921",
"t  c #252621",
"y  c #292622",
"u  c #242B24",
"i  c #2B2B24",
"p  c #252E29",
"a  c #2D2E29",
"s  c #332D24",
"d  c #312E29",
"f  c #382B27",
"g  c #243025",
"h  c #26312A",
"j  c #2B332C",
"k  c #2C3729",
"l  c #323126",
"z  c #33332B",
"x  c #3A352D",
"c  c #39392E",
"v  c #383328",
"b  c #2C3631",
"n  c #2E3A32",
"m  c #353630",
"M  c #383732",
"N  c #333C34",
"B  c #3B3B33",
"V  c #3C3E39",
"C  c #353E39",
"Z  c #45392D",
"A  c #423D33",
"S  c #403F3A",
"D  c #35432D",
"F  c #334136",
"G  c #35433A",
"H  c #3B433C",
"J  c #3B493E",
"K  c #38463A",
"L  c #414136",
"P  c #44443C",
"I  c #4A493E",
"U  c #4A4539",
"Y  c #544A3C",
"T  c #44523B",
"R  c #3D4C43",
"E  c #3C4640",
"W  c #3E5247",
"Q  c #434C44",
"!  c #4C4C43",
"~  c #4C4E49",
"^  c #474641",
"/  c #534D43",
"(  c #504F4B",
")  c #435046",
"_  c #45544A",
"`  c #4B534C",
"'  c #4C594E",
"]  c #4A5648",
"[  c #525146",
"{  c #54544B",
"}  c #5A594E",
"|  c #57574C",
" . c #4B5B51",
".. c #555651",
"X. c #535C54",
"o. c #5C5C53",
"O. c #5E5D58",
"+. c #545E58",
"@. c #615F5A",
"#. c #4F6155",
"$. c #526156",
"%. c #54645A",
"&. c #5A645C",
"*. c #5A685D",
"=. c #5A6657",
"-. c #53614A",
";. c #616156",
":. c #64645B",
">. c #6A6A5E",
",. c #68685C",
"<. c #6C715E",
"1. c #5C6C62",
"2. c #5C6761",
"3. c #5E7064",
"4. c #646C63",
"5. c #6C6C63",
"6. c #686A65",
"7. c #637265",
"8. c #6F7165",
"9. c #64746A",
"0. c #6A756D",
"q. c #6A7A6E",
"w. c #65786D",
"e. c #727265",
"r. c #74746B",
"t. c #7A7A6E",
"y. c #797768",
"u. c #6D7B71",
"i. c #6E7470",
"p. c #767670",
"a. c #737C73",
"s. c #7C7C72",
"d. c #7D7E79",
"f. c #777873",
"g. c #706F6A",
"h. c #817F76",
"j. c #807E6F",
"k. c #6D8074",
"l. c #718176",
"z. c #758379",
"x. c #7A857D",
"c. c #7C8A7E",
"v. c #7B8A75",
"b. c #798A75",
"n. c #828275",
"m. c #84847A",
"M. c #89877B",
"N. c #87887C",
"B. c #8A8A7E",
"V. c #7D8B82",
"C. c #7D9186",
"Z. c #868681",
"A. c #838D85",
"S. c #8D8C83",
"D. c #8C8A85",
"F. c #918E85",
"G. c #849287",
"H. c #8B948C",
"J. c #8C9A8F",
"K. c #899487",
"L. c #929286",
"P. c #94948B",
"I. c #99998D",
"U. c #99978A",
"Y. c #8C9D92",
"T. c #8E9691",
"R. c #949D95",
"E. c #9D9C93",
"W. c #9E9E99",
"Q. c #949A95",
"!. c #A29E9B",
"~. c #95A49A",
"^. c #9BA39C",
"/. c #99A597",
"(. c #A2A295",
"). c #A5A49B",
"_. c #A9A99C",
"`. c #A9A695",
"'. c #B0AF9E",
"]. c #B3B09E",
"[. c #9FA9A3",
"{. c #A3ABA3",
"}. c #ABACA3",
"|. c #A7A8A3",
" X c #B1AFAA",
".X c #ABB3AE",
"XX c #AAB5A8",
"oX c #B3B3AC",
"OX c #BABAAC",
"+X c #B5B3A3",
"@X c #ACB8B0",
"#X c #B9B7B1",
"$X c #B2BBB2",
"%X c #BBBBB3",
"&X c #B7B9B4",
"*X c #C2BFB7",
"=X c #B7C2B5",
"-X c #C4C4BC",
";X c #C5C6B9",
":X c #BECAC3",
">X c #CCCCC3",
",X c #C8C9C3",
"<X c #D1CFC5",
"1X c #C6D3C8",
"2X c #D2D2CA",
"3X c #D5D6CA",
"4X c #DCDBD5",
"5X c #DCDED8",
"6X c #DAE1DB",
"7X c #E3E3DC",
"8X c #ECEBDD",
"9X c #E5E4D5",
"0X c #F0EDDC",
"qX c #E4EAE6",
"wX c #EAEBE4",
"eX c #EAEEEA",
"rX c #E6E6E1",
"tX c #E8F1EC",
"yX c #F4F4E9",
"uX c #EEF7F2",
"iX c #FAFAF6",
"pX c #FCFEFC",
"aX c #F5F9F5",
"sX c #F0EFEA",
"dX c #DCECE2",
/* pixels */
"    O = ; < p b C C C R  . . .Q R E R G E E E E G n n C n n F K n n n n h h h h g r r r r 4 4 4 4 - 4 - < - - - - - - - = % = O ",
"  + 1 a S  .9.V.H.Q.^.[..X@X.X[.{.R.^.T.Y.~.V.V.V.9.u.z.u.3.w.u.3.3.0.7.1.1.*.%.#.#.#. .W W R R R R E E n b b n n h p r e e e % ",
"  < H ~ 3.V.R.@X:X1XqXpXpXpXpXpXpXpXpXaXtXC.W _ _ W R R R R E G G G G G F F b n b h  .k.w.3.#.#.W W W W R W W R E E n n p b < O ",
"o t ~ _ ) +.7.u.V.[..XaXpXpXpXpXpXpXaXpX@Xn V.a.a.a.w.9.w.3.w.*.1.%.2.%. . ._ W R R r 1.w.%. .W W W W E R _ G n h r r h p p e % ",
"+ b +.2. .+.+.2.9.[.&XuXeXaXuXtXtXtXtXtX:XY.[.[.Y.Y.C.C.C.V.C.k.u.k.w.w.3.3.*.#.%.%. .1.1.#. ._ W  .W W W  .n h r r 5 p p h e % ",
"& E i.7.9.6.p.d.A..XT.@X&X,X:X&X.X@X.X[..X@X.X{.[.[.Y.Y.~.Y.C.l.u.l.u.u.w.3.3.1.%.$.#._ W R G F F F E R n W E b j g p h p b r % ",
"<  .Q.C p j j m C C H.[.H.Q.Q.T.G.G.V.V.u.k.V.a.9.4.u.w.%.2.2. ._ ' ` Q R _ R R G G F C n n j h r h h b n b e 4 < 4 - 4 e E p - ",
"< 2.@X[.[.T.T.!..XrX&X` +.+.+.+...` ( ` ` _ ~ ^ E E H G G G n b b j j p p h h g p u u u e r 7 4 4 r r 4 r W R b j j b h r b p = ",
"4 x.z.G qXaXpXpXpX X..f.Z.Q.H.D.m.m.f.h.f.6.6.:...^ ^ P V H ^ z M N B m M m M z t y i i i i y y y t 1 , 5 t ` ) F J J N - g u $ ",
"5 z.A.  $XpXaXpXQ...T.!.&XoX>X,X,X%XoX#XE.M.F.s.h.p.6.6.....O.^ { ! ( ..{ ! ^ V B B B z B c d d i y 7 2 , , 5 C Q K F N X 5 h $ ",
"r c.A.  [.pXpXT.2.f.|.&X*X2X2X2X2X,X*XoX!.(.P.S.m.p.g.6.@.@.6./ 5...>.y.p.5.[ I ! I B L L B B z B z 7 y 7 ; > 5 K ) F N X 4 h = ",
"u G./.X .XpXeXd.H.|.rXpXpXpXpXpXiXpXsX8X<X%X2X<X#X).P.P.D.D.F.5.N.h.p.m.m.r.e.5.=.5.} o.:.{ } / [ ! c z k 7 , > p ' K G % 4 h = ",
"j c.1X=.%XpXeX{.,XrXaXiXpXaXiXiXsXsX8X9X2X*X%X%X X(.L.S.D.M.F.6.p.n.p.g.5.5.8.8.| / o.} | [ [ ! ! U B c i i 9 , k *.R D 6 6 u $ ",
"b c.=Xk.=XpXqXR.rXiXiXiXpXpXpXpXpXwXwX4X4X2X>X%X}.(.I.E.F.D.Z.:.s.m.y.p.y.r.g.g.>.| ! ! [ ! ! ! P L B c P i y 9 k k.W F 6 6 r - ",
"k Y./.T -XpXqX!.,XwXaXrX5XsXeXrX5X7X<X,X2X>X-X|.|.D.Z.m.h.f.h.@.p.6.@.g.5.6.@.@.o.{ ^ ^ ! ! V ~ c z c z d a i 5 h k. .F 6 9 g = ",
"k B.XXD :XpXqXQ. X XoXoX*X7X*X!.|.!.F.W.W.F.h.p.g.g.g.6.O...@.^ ( ^ S P P B M M m M M i z m y y t 7 t 7 5 z i = u w.] K $ g h = ",
"F J.1X% J.pXdXH.W.|.W.-X5X,X!.!.!.D.!. XD.D.D.p.6.@.h.@.......^ ..S S S B M z d M ~ V y d a y t t 2 7 1 1 t : & i $.W G $ - h $ ",
"b J.=X6 =XaX6XJ.|.&X,X-X4X-X#X*X#X*X#X X|.!.P.D.Z.d.D.g.@.@.@.( O.~ ( ~ ^ S ^ S S V M B m d d i i i t y t 1 , , j  .E F % 4 p - ",
"h J.=XB.pXuXuX~.<XeXwX7XrXrX4X7XsX4X4X4X,X*X#X X|.W.W.D.h.h.Z.:.p.6.6.@.O.O.@.O.( ~ ~ ( P M S M m M d d a i i 1 z  .E N 6 5 r $ ",
"h ~.=X-.3XR.q.G.H.W.W.Z.D.D.T.P.D.Q.W.Z.j.g.@.@.O.o.O.....( ( ^ ( ^ M m m m M x d z z a t t t 2 2 7 2 , : : ; ; t h h F 6 g g = ",
"k J./.' 1Xk.7.^.XX>X2X*X X X%X#X}.%X X). XE.Z.h.B.S.m.r.e.t.y.{ @.5.@.| { | ( P ~ S ! S z z m m m d z a t y 8 , t $ r R 5 g g $ ",
"k G.XXw 6X=X[.J.=X9X8X=Xp.d.p.f.r.p.6.E.#X!.!.E.I.P.N.N.B.S.S.@.s.s.g.,.o.@.o.( ( P P i u i 7 t t 1 a B d y 7 1 u N n C - w u $ ",
"k Y.[.X 6X:Xc.G.oX3X7X%X6.r.g.p.g.6.:.F.+XE.U.U.B.M.n.B.L.B.B.=.y.8.>.@.[ [ ( ! ! ^ V y 7 y 7 1 2 1 y B z y 7 6 p N r C ; e u - ",
"h C.c.  .XXX*.G.+X;X6X-Xr.d.h.s.p.r.g.P.oXU.E.U.M.L.S.S.B.s.t.} 6.>.,.@.| [ ( ! ! P B i 7 7 7 7 2 2 y M a y 7 5 9 5 4 n > 5 r = ",
"b V.K.D {.u._ G.{.;X3X<X,.y.s.6.4.g.6.P.;X_.).I.L.S.M.B.n.r.y.o.>.5.o.} o.! [ ! P L P i 7 t 7 7 7 1 t N z y y 5 5 $ - j e 4 t $ ",
"h u.b.T _.~.Y.K./.;X<X<X<.y.5.6.6.6.,.M.).).(.I.L.S.n.n.n.e.s.| :.5.o.| | ! ! ^ ! ^ P t 2 1 7 1 1 , 2 a i 0 7 5 9 h p n u 9 r = ",
"p 0.7.w ~.dX1Xx.K._.;X3X;X;X;X;X;X;X-X_.E.(.I.s.n.E.v.h.r.8.r.| :.@.} o.{ ~ ! P ! ^ P I I I U P m z z t u u 7 > m +.b C 5 5 u $ ",
"u 9.4.X Y.G.V.a.S._.`.;X;X9X9X;X3XOX}.).).P.n.B.B.U.m.s.5.5.5.{ @.} } } o.[ [ ~ L B I I { [ I L z B z l i 7 7 , n Q < G 5 4 r $ ",
"r q.*.X J.w.z.a.t.).(.I.(.(.B.(.U.L.B.j.F.n.s.m.I.#X Xh.5.e.r.[ } o.} o.x.S.,.! L V B M M c s 8 i d i y l i 7 , j R 4 n - 4 u $ ",
"5 0.k.X v.k.q.7.8.m.M.t.N.t.n.M.e.j.j.j.y.;.e.h.%X-X|.L.5.y.r.! | o.| f.*XL.8...! 8 9 i l s 8 8 7 7 8 7 7 9 5 * u n 4 j - 4 t $ ",
"5 3.v.D b.7.7.7.;XyX0X0X8X0X0XyX9X9X0X9X9X+X{ y.L.W.<Xo.8.>.o.P ! { | 5.6.D.! ! c I <.} } } } o.} [ [ I [ ! B z p j 4 h 5 u r $ ",
"r *.<.D c.*.w.7.J.=X`.`.`.'.;X;X`.*X].].].OXB.| >.;.y.:.>.o.:.! ^ Q [ ! M } ! ! q >.{ I I U c c A D v l z l y 6 t m > h 6 g r $ ",
"5 =.1.D c.G.a.=.M.F.I.I.B.M.'.(.L.E.`.(.L.L.(.e.e.<.} M.>.I } L I P U Y T v [ v ! [ H L L x i l i l z l 7 8 7 , 5 m 5 b 6 g r $ ",
"4 $.=.X b.k.k &.e.b.M.P.n.n.I.U.j.M.E.U.L.F.v.L.,.n.B.j.n.y.<.L [ { } Y [ | [ D Y H B L l l i d i i l 9 7 7 6 * 5 - , C X t u $ ",
"6 $.*.  V.Y.*.1.=.s.s.L.y.N.S.B.t.M.U.L.L.B.s.t.M.`.].].`.`.(.;.n.B.B.n.y.y.,.[ c N M l z l i a i y t 7 2 , 5 , 7 5 k `   < u O ",
"4 $.0.X V.~. .' =.e.t.M.M.L.N.n.y.n.B.B.h.e.:.5.e.,.<.<.y.<.y.U o.} } ;.} o.I A B z M z l i i t u t y t 7 7 , : 5 5 h ] X > p = ",
"< X.7.6 k.J.] ' ..8.s.x.e.n.B.M.M.n.t.S.,.5.O.o.;.} / } } I ;.L P I I ! I P U c B B c z i i i u 7 7 i t 1 7 6 : t 5 k _ - 6 u $ ",
"- ) -.w 7.z.Q ' ..>.t.:.,.t.M.y.y.t.n.n.;.>.>.{ } Y Y } :.[ { c B I c P L l z c x c z z l d a y 7 y 7 7 1 7 5 , t e k Q * 6 r $ ",
"> Q ] w -.z.` ] [ ;.8.5.e.t.j.>.,.t.t.5.=.} >.[ | / { } I [ ! c H L B M M x z B d i l d z i a i 0 u 7 7 7 7 7 * r u Q F 6 5 u $ ",
"- K T 6  .l.q.) ] @.,.>.t.5.y.e.,.r.t.4.o.o.:.o.! ` I P P L I l P ! S z S P c L B i y p l i i i i y 7 7 1 2 , * r ) K k - 9 t $ ",
"= C V X R 1.l.Q ) @.:.,.:.y.<.,.,.e.5.{ } { ! | ;.! P P O.M L H B H B P A v x s v B 0 y i a d i i 9 7 3 * , : * u R n b % > 9 $ ",
"- C C   G 1.l.J ^ ;.;.:.<.<.;.:.;.>.} [ | [ ! P } I L P ! I o.c l B ! M A / / U i i z 9 z d l z x q q q q l 7 * r ) b j X $ u % ",
"; C ^ j ' %.x.Q L ;.o.[ ;.;.,.,.} >.[ [ { [ P P ! } B B { [ { c z B V M Y Y Y Y c 8 B y a m d z v s q v v v s 3 u ` k j 4 t e $ ",
"- p b m B m 0._ B / =.;.;.;.@.;.} :.{ ! I P P P L ;.L z B I ! c l z z A / Z Z Y I s s z a B M v Z q Z q q q s 8 7 H 7 7 t t 4 % ",
"& t 3 3 3 * o.! V I P ! ] { { | } { ! ! ! P H P L B [ B B U I l z M A s U Y U Y U q d a m M M f L q q q f s f * y z # # # # , = ",
"$ y f f Z f 5.^ B ! P P ! [ ! [ ! I ! P ! I A B H M P P L L I l l c B l q U Y A 0 0 d 7 i M a i v q 8 8 8 y 2 & t S 3 3 3 2 2 + ",
"$ 7 f M B V 2.V z B L L P ! / I [ H I I L H | L M M c B I L B s z B l A 8 l x 8 7 a i 5 p i 7 2 7 7 * 7 , 1 : ; 5 V t i y y 4 = ",
"+ 7 a i z m ) m h B [ B L ! P L L L L L A I [ M m z l z L c H l z L x l x c s i l t t i i y 1 7 7 , 7 7 1 1 : ; 2 b 7 t 7 t 1 $ ",
"+ e i y Z x S p i B L M B H B B B B B B M B c k M z z d l l L 0 l c l i 8 7 y t 7 7 9 i y 7 7 7 * 7 7 1 , 5 : * 4 a 8 8 7 t 1 = ",
"+ 1 # : * * t i 7 d k B B z M c c M z z c z l z z i l l i z c 9 i l 7 7 9 2 7 t 7 7 2 7 7 1 1 7 7 5 2 , , , * > 5 1 @ # # # : = ",
"+ 1 z d M F H p 7 i z M z k z c l z z d l k l l a a i z c i z 7 i 0 7 7 7 7 t t 7 7 7 , 1 1 , 2 1 1 7 , * > * & 1 p y 7 t p 4 + ",
"O < p : 5 G H p 7 l h M i l z z l M z m a i i i i t i t z y l 2 2 9 7 7 7 7 2 t 1 7 , : , 1 2 , : 5 * * , * $ & 4 n h 4 4 j 4 + ",
"O ; e % = b b u e t i d i z u z m a m d a y p y t t t 7 z t i 2 7 1 7 7 1 7 , 2 1 1 1 : < , < , * 5 : > * & * + 4 h u O ; u : O ",
"O ; e + . b b e ; t 1 1 t 7 t , t t 7 d t t 2 : 7 , , 1 , i 2 7 2 7 1 : , , , : : 1 * : : : : : * * & : & & + & , r p O + e < = ",
"O = e % O p b e < i t 1 t t i 7 a a y m d d y 2 5 5 2 7 1 i 7 2 7 7 7 , 7 , 2 t , 2 5 , < : 2 : ; : * ; & & & & 4 h u X % u < $ ",
"O ; 1 ; = p j e : t t t t i i i z t i a M m 2 2 2 t t 7 t t i < 7 7 1 7 t 7 2 t 7 9 y 7 2 2 1 : ; , > > * & * $ 4 k u ; - r 1 + ",
"+ = < = < e b e : 7 t a y a y y y a y y a a t y y p y 2 2 t y 2 7 7 7 7 7 2 2 2 7 2 2 t 2 2 2 : 2 7 1 : : , ; ; 1 j r < 4 5 4 $ ",
". + : + = t p < + + & : ; : : ; ; : ; ; & & ; ; ; ; : ; ; & ; ; : & ; & @ + & + & & & & + ; & ; + & & + + + + O < h r = > 5 < $ ",
"  + < O + 1 b 5 +   + + o + . & @ + : . + + o & . + + o & o @ ; : + . @   @ o o o . o o . + . . .   + . + o     4 C u O = r > + ",
"O + =   O < e 5 o   + + . & . o o o : . ; ;   & o + o . @ . + ; & . . @   + o   + . + . . +   + .   + . o     + 5 j p O % r > + ",
"  + ; = ; e p < O   + o o &   + o . ;   & +   & . + o   & . + ; ; o + &   & .   + . o o   +   + .   + . + .   o 4 C b e 4 p > + ",
"O $ < e e t p p O   + .   + . + o   @ . + o . &   + +   +   + ; &   o +   @ o o o   + o   o . + .   +   o .     p b j b n p p = ",
"O + + ; ; < 1 u +   + o   @   @ +   $   + +   &   + +   &   + ; ; o . +   + o . +   + O . +   + O   &   + .   O k u u u t 5 u ; ",
"  . O + + $ $ = .   .   . +   o   . +   . o   +   o     +   o + @   . o   o .   o . . .   o   o .   o   o     o : > - ; ; = ; + "
};
