/* XPM */
static char *_528983548859[] = {
/* columns rows colors chars-per-pixel */
"64 64 217 2 ",
"   c #040202",
".  c #0B0505",
"X  c #020D0D",
"o  c #0C0A0A",
"O  c #130505",
"+  c #1C0303",
"@  c #120B0B",
"#  c #19140C",
"$  c #021313",
"%  c #0A1212",
"&  c #041919",
"*  c #0B1E1E",
"=  c #151313",
"-  c #1B1C1C",
";  c #161C1C",
":  c #230101",
">  c #2E0000",
",  c #240909",
"<  c #280907",
"1  c #330202",
"2  c #3E0000",
"3  c #3B0C0C",
"4  c #370909",
"5  c #261A0D",
"6  c #2E1313",
"7  c #261C18",
"8  c #371717",
"9  c #362813",
"0  c #062424",
"q  c #0B2424",
"w  c #032C2C",
"e  c #0B2C2C",
"r  c #1B2323",
"t  c #112B2B",
"y  c #1C2B2B",
"u  c #033232",
"i  c #0B3535",
"p  c #053B3B",
"a  c #0B3D3D",
"s  c #123434",
"d  c #1B3434",
"f  c #143C3C",
"g  c #1A3B3B",
"h  c #252525",
"j  c #292525",
"k  c #222C2C",
"l  c #2D2D2D",
"z  c #2A2822",
"x  c #302F2F",
"c  c #362A27",
"v  c #233535",
"b  c #2A3333",
"n  c #223B3B",
"m  c #2A3B3B",
"M  c #343333",
"N  c #3A3434",
"B  c #313D3D",
"V  c #3B3B3B",
"C  c #393026",
"Z  c #440101",
"A  c #4B0101",
"S  c #4A0909",
"D  c #540000",
"F  c #5C0000",
"G  c #580C0C",
"H  c #471818",
"J  c #571C1C",
"K  c #630101",
"L  c #690606",
"P  c #730000",
"I  c #7B0000",
"U  c #750808",
"Y  c #631F1F",
"T  c #432C19",
"R  c #4E361C",
"E  c #443939",
"W  c #503C22",
"Q  c #632222",
"!  c #59442C",
"~  c #4A4038",
"^  c #674527",
"/  c #76512E",
"(  c #795235",
")  c #715133",
"_  c #034343",
"`  c #0A4343",
"'  c #014B4B",
"]  c #0E4E4E",
"[  c #124343",
"{  c #1B4242",
"}  c #144B4B",
"|  c #1A4C4C",
" . c #045252",
".. c #095454",
"X. c #005B5B",
"o. c #085858",
"O. c #1C5454",
"+. c #195B5B",
"@. c #234545",
"#. c #2C4343",
"$. c #234B4B",
"%. c #344444",
"&. c #3A4746",
"*. c #2D5252",
"=. c #225858",
"-. c #016464",
";. c #016C6C",
":. c #0A6B6B",
">. c #096363",
",. c #166868",
"<. c #007373",
"1. c #007B7B",
"2. c #087777",
"3. c #157575",
"4. c #246969",
"5. c #346868",
"6. c #2B7373",
"7. c #434242",
"8. c #4A4A49",
"9. c #4D4343",
"0. c #595344",
"q. c #465855",
"w. c #5D5D5D",
"e. c #545757",
"r. c #514E4E",
"t. c #795945",
"y. c #625E5B",
"u. c #7A6957",
"i. c #4D6363",
"p. c #566868",
"a. c #447A7A",
"s. c #636363",
"d. c #667777",
"f. c #757371",
"g. c #850000",
"h. c #8B0000",
"j. c #8F0909",
"k. c #960000",
"l. c #9B0000",
"z. c #861818",
"x. c #A20000",
"c. c #A80000",
"v. c #A11B1B",
"b. c #895A36",
"n. c #884E34",
"m. c #99643C",
"M. c #A5683E",
"N. c #8E5F47",
"B. c #886144",
"V. c #976848",
"C. c #AC6D43",
"Z. c #B27145",
"A. c #BE794C",
"S. c #BD7F5B",
"D. c #AA7455",
"F. c #8B7B6F",
"G. c #C57E54",
"H. c #978476",
"J. c #BB8865",
"K. c #AB886D",
"L. c #CC8354",
"P. c #CD875A",
"I. c #D78A59",
"U. c #E4905D",
"Y. c #C58B65",
"T. c #D48E62",
"R. c #C48D77",
"E. c #D69A74",
"W. c #CD9672",
"Q. c #E39666",
"!. c #E19C70",
"~. c #DFA37C",
"^. c #E6A67D",
"/. c #008282",
"(. c #008989",
"). c #0E8585",
"_. c #009A9A",
"`. c #079595",
"'. c #8A8A8A",
"]. c #979797",
"[. c #9F9E9D",
"{. c #988E83",
"}. c #A49B97",
"|. c #B8A69B",
" X c #A1A09C",
".X c #A7A7A5",
"XX c #B3A9A5",
"oX c #B4B3B3",
"OX c #B7B8B8",
"+X c #B7B7B8",
"@X c #C79B80",
"#X c #D7AF99",
"$X c #E6AB88",
"%X c #ECB28E",
"&X c #F8B388",
"*X c #E1AF90",
"=X c #F5BC99",
"-X c #C0AFAF",
";X c #C2BFBB",
":X c #E2B7A1",
">X c #FDC09D",
",X c #FCC5A5",
"<X c #FECFB2",
"1X c #FFD5BC",
"2X c #FFD1B6",
"3X c #E1C4B4",
"4X c #CBCACA",
"5X c #C3C3C3",
"6X c #D5D5D6",
"7X c #FED9C3",
"8X c #FBDCC9",
"9X c #E0DFDF",
"0X c #FEE0CE",
"qX c #FFE4D4",
"wX c #F6EAE3",
"eX c #EAEAEA",
"rX c None",
/* pixels */
"rXrXrXrXrXrXrXrXrXrXrXrXrXrXrXrXrXrXrXrXrXrXrXrXrXrXrXrXrXrXrXrXrXrXrXrXrXrXrXrXrXrXrXrXrXrXrXrXrXrXrXrXrXrXrXrXrXrXrXrXrXrXrXrX",
"rXrXrXrXrXrXrXrXrXrXrXrXrXrXrXrXrXrXrXrXrXrXrXrXrXrXrXrXrXrXrXrXrXrXrXrXrXrXrXrXrXrXrXrXrXrXrXrXrXrXrXrXrXrXrXrXrXrXrXrXrXrXrXrX",
"rXrXrXrXrXrXrXrXrXrXrXrXrXrXrXrXrXrXrXrXrXrXrXrXrXrXrXrXrXrXrXrXrXrXrXrXrXrXrXrXrXrXrXrXrXrXrXrXrXrXrXrXrXrXrXrXrXrXrXrXrXrXrXrX",
"rXrXrXrXrXrXrXrXrXrXrXrXrXrXrXrXrXrXrXrXrXrXrXrXrXrXrXrXrXrXrXrXrXrXrXrXrXrXrXrXrXrXrXrXrXrXrXrXrXrXrXrXrXrXrXrXrXrXrXrXrXrXrXrX",
"rXrXrXrXrXrXrXrXrXrXrXrXrXrXrXrXrXrXrXrXrXrXrXrXrXrXrX5X4X6XeX9X;XXX X X.X].'.rXrXrXrXrXrXrXrXrXrXrXrXrXrXrXrXrXrXrXrXrXrXrXrXrX",
"rXrXrXrXrXrXrXrXrXrXrXrXrXrXrXrXrXrXrXrXrXrXrXrXrXrX5X.Xs.'.4X{.) ! ! W z l s.f.rXrXrXrXrXrXrXrXrXrXrXrXrXrXrXrXrXrXrXrXrXrXrXrX",
"rXrXrXrXrXrXrXrXrXrXrXrXrXrXrXrXrXrXrXrXrXrXrXrXrX4X.Xe.s.5X6X}.F.b./ ^ R # = r.w.rXrXrXrXrXrXrXrXrXrXrXrXrXrXrXrXrXrXrXrXrXrXrX",
"rXrXrXrXrXrXrXrXrXrXrXrXrXrXrXrXrXrXrXrXrXh.k.l.v.-Xs.9.XXwXwX3X|.H.V./ R # . @ E j.x.x.k.h.rXrXrXrXrXrXrXrXrXrXrXrXrXrXrXrXrXrX",
"rXrXrXrXrXrXrXrXrXrXrXrXrXrXrXrXrXrXrXrXk.k.k.g.z.XX8.N K.qXqX=X$XJ./ 9 5 9 5 @ c U g.h.k.k.k.rXrXrXrXrXrXrXrXrXrXrXrXrXrXrXrXrX",
"rXrXrXrXrXrXrXrXrXrXrXrXrXrXrXrXrXrXrXrXh.P A A J }.M W J.0X7X,X1X<X~.B.V.m.T @ N S Z A D P h.rXrXrXrXrXrXrXrXrXrXrXrXrXrXrXrXrX",
"rXrXrXrXrXrXrXrXrXrXrXrXrXrXrXrXrXrXrXK P A : rXrXoXrX) W.8X7X2X8X0X1X<X&XA.n.rXw.rXrXrX: A P F rXrXrXrXrXrXrXrXrXrXrXrXrXrXrXrX",
"rXrXrXrXrXrXrXrXrXrXrXrXrXrXrXrXrXrXrXK F : rXrXrX+XrXC.W.#XD.W.*X*XW.B.C.L.Z.rXs.rXrXrXrX: F K rXrXrXrXrXrXrXrXrXrXrXrXrXrXrXrX",
"rXrXrXrXrXrXrXrXrXrXrXrXrXrXrXrXrXrXrXK A + rXrXrX+XrXC.~.:Xn.( J.Y.( n.L.I.C.rXw.rXrXrXrX+ A K rXrXrXrXrXrXrXrXrXrXrXrXrXrXrXrX",
"rXrXrXrXrXrXrXrXrXrXrXrXrXrXrXrXrXrXrXK A + rXrXrXOXrXM.$X7X$XI.%X%XI.^.=XU.C.rXs.rXrXrXrX+ A F rXrXrXrXrXrXrXrXrXrXrXrXrXrXrXrX",
"rXrXrXrXrXrXrXrXrXrXrXrXrXrXrXrXrXrXrXD Z + rXrXrX+XrXt.W.1X^.Z.V.V.C.!.&XL.rXrXw.rXrXrXrX+ A A rXrXrXrXrXrXrXrXrXrXrXrXrXrXrXrX",
"rXrXrXrXrXrXrXrXrXrXrXrXrXrXrXrXrXrXrXrX2 > rXrXrXoXrX~ J.,XT.b.7 7 b.T.U.M.rXrXw.rXrXrX: > 2 rXrXrXrXrXrXrXrXrXrXrXrXrXrXrXrXrX",
"rXrXrXrXrXrXrXrXrXrXrXrXrXrXrXrXrXrXrXrXZ 2 : rXrX.XrXz u.=XY.^ : , ^ P.L.n.rXrXw.rXrXrX: 2 Z rXrXrXrXrXrXrXrXrXrXrXrXrXrXrXrXrX",
"rXrXrXrXrXrXK F D A rXrXrXrXrXrXrXrXrXrXrX4 , o l ].rXr y.:XT.( Y Y t.P.A.! l V e.rXrXo , 4 rXrXrXrXrXrXrXrXrXF A A A rXrXrXrXrX",
"rXrXrXrXrXL G H H D A rXrXrXrXrXrXrX . . .' _ _ ` p.e.= 8.|.!.J.R.R.L.I.m.T l 7.q.' ' _ _ ` w rXrXrXrXrXrXrXA 3 3 4 + 4 rXrXrXrX",
"rXrXrXrXQ E %.{ f #.H , h l M x { -.-.-.-.-.-.-.-.4.p.V 8.H.P.U.P.P.U.L.! # V e.+.-.;.-.;.-.X.i h l M M k k M x N N &.b 8 rXrXrX",
"rXrXrXQ 9.&...X X ` m j h x V @.-.<.<.<.<.<.<.<.<.;.4.d.'.s.( Z.L.L.Z.^ 7 V w.=.X.<.1.1.1.1.1.X.e h V B [ p } v x b } p [ 7 rXrX",
"rXrXrX8.V %.} q e a l x l l $.:.1.<.1.1.1.1.1.<.1.<.2.3.a.d.q.0.t.u.0.&.q.5.,.-.<.<.<.1.<.1.<.<.X.e l $.w   u O.x { w   u O.rXrX",
"rXrXrX&.%.V m s s k k m B m >.<.<.<.<.<.<.<.<.<.<.<.<.<.:.:.,.B B B +.:.:.;.;.<.;.<.;.;.;.;.;.<.;.X.g #.u $ p g h d u $ p *.rXrX",
"rXrX*.} [ @.k i t k n } [ | o.X.X.X.X.X.X.-.X.X.-.X.X.X.-.-.o.v a ' -.-.X.-.X.X.X.X.X.-.X.-.X.X.-.X.$.M n f d y e e d { #.V 8.rX",
"rXrXo.$ X p w & & f  .X X ' o.X.X. .X. . .X. .X.X. .X. .X. . .n a ' -.X.X.X.X.X. .X.X. .X. .X. . .X.| M l x b e $ 0 r M M V 7.rX",
"rXrX] 0 q a q q e d ` q q _ _ ' ' ' ' ' ' ' ' ' ' ' ' ' ' _ _ b b B ..' _ _ _ ' ' ' ' ' ' ' ' ' ' ' g M n | [ s 0 q s [ @.M V rX",
"rXrXv f f k y a ` k b f f a _ _ _  . . . ..... ..... . .` v a b N B  .' v `  . ..... . . . ... . ._ _ g p & p { r s p & _ @.rXrX",
"rXrXrXj h b } w q [ b l ; w _ _ _ ` [ g n n n n n n n n v b a b N B  .` b v n n n n n n n n g [ _ _ p p 0   w | x { w   w } rXrX",
"rXrXrXc l m ] X % ` b 7 rXp _ _ _ '  ...} ....} ] } ..} [ b a b M B  .` v [ } ] ] } ..} ] } .. .' _ a q i w [ m x M f w a = rXrX",
"rXrXrXA 6 h f i a t = . rXrX_ _ _ _ ` a g v v v v n v v v v a b M B .._ v v n v n v v n n v g a _ _ g rX% * r j k k k y = O rXrX",
"rXrXrX+ O . @ % $ o .   rXrX_ _ _ _ _ _ _ p ` _ _ p _ _ p _ _ l V B .._ p _ _ a p _ _ _ ` p _ _ _ a rXrXO O . % % % @ o   . rXrX",
"rXrXrXA 6 b %.N l l k ; rXrXrX_ _ _ _ _ _ _ _ _ _ _ _ _ _ _ _ b M B  .' _ _ _ _ _ _ _ _ _ _ _ _ _ g rXrXA 3 l [ ` } %.N , . rXrX",
"rXrXrXH [ p } b x m } p ' rXrX_ _ _ _ _ _ _ _ _ _ _ _ _ _ _ p b M B .._ _ _ _ _ _ _ _ _ _ _ _ _ a rXrXrXH x { w   w =.7.V 7 rXrX",
"rXrXrX=.w   w { x } w   w rXrXrX_ _ _ _ _ _ _ _ _ _ _ _ _ _ _ b M B  .' _ _ _ _ _ _ _ _ _ _ _ _ g rXrXrXM x d a * p #.V 7.7.rXrX",
"rXrXrX*.a & u d h g p $ i } rXrXrX_ _ ` _ _ _ _ _ _ ` p _ _ a b x b ] ` _ a _ _ _ ` _ ` _ ` p f rXrXrXrX#.b j d s n V %.&.7.M rX",
"rXrX7.V #.f d t e y g f n M rXrXrXk l k k k k k k k k k k k k - o % r y k k k k k k k k k y k b rXrXrX} [ } v y w t b | ] O.%.rX",
"rXrX7.V N M ; w & e k x x l rXrXK A S 4 , + + + + O O O O . @ . .   . . O @ @ + O + + + + + , rXrXrXrXw   u ] e $ w i w   u O.rX",
"rXrXV M { } s q 0 i g | n b rXrXl.l.k.h.g.I U P K F D A 2 1 : : + : : 1 2 A D F K P U I g.h.k.c.c.rXrXa * p g s 0 q e i * p { rX",
"rXrXrX{ p & i s r { p & i g rXrXL L F D A A A A Z 1 > < + + + . . .   + : : > 1 Z A A A D D F P I rXrXd f d l f _ f h d f v k rX",
"rXrXrX| w   w { b } w   w rXrXrX..a r o .     .             . h h X X X X X X X X X X X X X X rXrXrXrXrXh l n p * a @.j k j rXrX",
"rXrXrX8 f w f b x b [ w _ rXrXrXX._ y r r r r r r r r r r r y b n o. . .'  . . . . . .'  .'  .X.X.rXrXrXj l g w   u } x k = rXrX",
"rXrXrXA 6 h k l k h h * rXrXrXrXX._ a a p a a a a p a a p a a a ` -.X. .X.X.X. .X. .X.X. .X.X.X.X.rXrXrXS 6 r f i a b 7 @ . rXrX",
"rXrXrXA : O O o o .     rXrXrXrX` v b b b b b k b b b b x b b k y _ _ _ _ ` ` _ ` _ _ ` ` _ _ ' _ rXrXrXrX1 + o o o o .     rXrX",
"rXrXrXrXrXrXrXrXrXrXrXrXrXrXrXrX` b l l l l x l l l l l l l l l k a n n v n v v v n v v n g _ _ _ rXrXrXrXrXrXrXrXrXrXrXrXrXrXrX",
"rXrXrXrXrXrXrXrXrXrXrXrXrXrXrXrXrXy h h h h h j h h h h h h h h y _ o.o. .o.o.o.o.o.o.o.o. . ._ _ rXrXrXrXrXrXrXrXrXrXrXrXrXrXrX",
"rXrXrXrXrXrXrXrXrXrXrXrXrXrXrXrXrXo.b x l l l l l l x b x l l h rX_ -.X.X.X.X.X.X.X.X.X.X.X.X.' _ rXrXrXrXrXrXrXrXrXrXrXrXrXrXrX",
"rXrXrXrXrXrXrXrXrXrXrXrXrXrXrXrXrX>.b b x x b x x x x x x x l h rXrX-.-.X.X.-.X.X.X.-.X.X.-.X.X.rXrXrXrXrXrXrXrXrXrXrXrXrXrXrXrX",
"rXrXrXrXrXrXrXrXrXrXrXrXrXrXrXrX;.>.b x x x x x b x x x x x x h rXrX1.1.1./.1.1.1.1.1.1.1.1.1.1././.rXrXrXrXrXrXrXrXrXrXrXrXrXrX",
"rXrXrXrXrXrXrXrXrXrXrXrXrXrXrX2.(.-.m b b b b b b b b m b m x h rXrX_._._._._._._._._._._._._._._.`.rXrXrXrXrXrXrXrXrXrXrXrXrXrX",
"rXrXrXrXrXrXrXrXrXrXrXrXrXrXrX6./.-.' ] ] ` _ p ` ` ` ` _ _ a b N i.`.(.(.(.(./.(.(.(./.(.(.(./.(.`.p.rXrXrXrXrXrXrXrXrXrXrXrXrX",
"rXrXrXrXrXrXrXrXrXrXrXrXrXrXs.5.;. . . . .' _ _ _ _ _ _ _ _ ` b V i.).<.<.<.<.<.<.<.<.<.<.<.<.<.1.).p.rXrXrXrXrXrXrXrXrXrXrXrXrX",
"rXrXrXrXrXrXrXrXrXrXrXrXrXrX#.O. .f g d f g g g f s g g d f v x M %.:.X.X.X.X.X.X.X.X.X.X.X.X.X.X.:.%.rXrXrXrXrXrXrXrXrXrXrXrXrX",
"rXrXrXrXrXrXrXrXrXrXrXrXrX-.-. .` b l x l l l l l x l l l l l l j rX ._ _ ` _ _ ` _ ` ` _ ` ` _ _  .rXrXrXrXrXrXrXrXrXrXrXrXrXrX",
"rXrXrXrXrXrXrXrXrXrXrXrXrX<.<.-.f k h h h h h h h h h h h h h h h rX_ v b b b v v v v v v v v b v _ rXrXrXrXrXrXrXrXrXrXrXrXrXrX",
"rXrXrXrXrXrXrXrXrXrXrXrXrX<.<.<.-.` y 7 h h h h h h h 7 h h l l h rXrXrXm ` _ ` _ _ _ ` _ ` ` b rXrXrXrXrXrXrXrXrXrXrXrXrXrXrXrX",
"rXrXrXrXrXrXrXrXrXrXrXrXrX1.1.<.;.' k h h h h h h h h h h h l l h rXrXrX-.X.X.X.X. .X. . .X. .b rXrXrXrXrXrXrXrXrXrXrXrXrXrXrXrX",
"rXrXrXrXrXrXrXrXrXrXrXrXrX/.1.<.<.X.f b l k l l l l l l l l M l h rXrXrX<.-.X.X.X.X.X.X.X.X. .m rXrXrXrXrXrXrXrXrXrXrXrXrXrXrXrX",
"rXrXrXrXrXrXrXrXrXrXrXrXrX(.1.<.<.-. ._ k h h h h h h l M l l l h rXrXrX;.X.X.X.X.X.X.X.X.X.o.b rXrXrXrXrXrXrXrXrXrXrXrXrXrXrXrX",
"rXrXrXrXrXrXrXrXrXrXrXrXrX(./.1.<.1.-.' rXrXrXrXrXrXrXx l b l l h rXrXrX<.X.X.X.X.X.X.X.X.X. .v rXrXrXrXrXrXrXrXrXrXrXrXrXrXrXrX",
"rXrXrXrXrXrXrXrXrXrXrXrXrX/.1.2.:.:.>._ rXrXrXrXrXrXrXl l l l l k :.<.<.;.-.X.X.X.-.X.-.-.X.o.{  . . .' rXrXrXrXrXrXrXrXrXrXrXrX",
"rXrXrXrXrXrXrXrXrXrXrXrXrX>.{ m m n m b rXrXrXrXrXrXrXh h h h h y :.<.<.<.<.;.-.-.-.;.-.-.<.;.<.<.<.;. .rXrXrXrXrXrXrXrXrXrXrXrX",
"rXrXrXrXrXrXrXrXrXrXrXrXrXrXrXrXrXrXrXrXrXrXrXrXrXrXrXrXrXrXrXrXrX1.1.<.<.<.<. .' ' ' '  .<.<.<.<.<.<. .rXrXrXrXrXrXrXrXrXrXrXrX",
"rXrXrXrXrXrXrXrXrXrXrXrXrXrXrXrXrXrXrXrXrXrXrXrXrXrXrXrXrXrXrXrXrX(.1.<.<.<.-.' _ _ _ _  ./.<.<.<.<.<. .rXrXrXrXrXrXrXrXrXrXrXrX",
"rXrXrXrXrXrXrXrXrXrXrXrXrXrXrXrXrXrXrXrXrXrXrXrXrXrXrXrXrXrXrXrXrX<. .'  .' ' rXrXrXrXrXrXX. .' ' ' ' v rXrXrXrXrXrXrXrXrXrXrXrX"
};
