/* XPM */
static char *_528031300264[] = {
/* columns rows colors chars-per-pixel */
"64 64 94 2 ",
"   c #15150D",
".  c #1A1710",
"X  c #1B1A15",
"o  c #1E1D1A",
"O  c #201F1B",
"+  c #252016",
"@  c #23221E",
"#  c #2A251D",
"$  c #2C291F",
"%  c #252522",
"&  c #292623",
"*  c #272924",
"=  c #2B2A25",
"-  c #2D2D2A",
";  c #312D25",
":  c #312F2B",
">  c #2E312C",
",  c #353126",
"<  c #3B3425",
"1  c #32322D",
"2  c #39352D",
"3  c #3D392D",
"4  c #2F3430",
"5  c #353531",
"6  c #393632",
"7  c #363934",
"8  c #3B3A35",
"9  c #393738",
"0  c #373C38",
"q  c #3D3D39",
"w  c #403927",
"e  c #423A2C",
"r  c #413D34",
"t  c #413E3A",
"y  c #3E413C",
"u  c #454034",
"i  c #4A4336",
"p  c #43423D",
"a  c #4A453C",
"s  c #4D493E",
"d  c #514A3C",
"f  c #59503E",
"g  c #3E4541",
"h  c #444541",
"j  c #494642",
"k  c #454944",
"l  c #4B4A45",
"z  c #464C48",
"x  c #4D4D49",
"c  c #524D44",
"v  c #584F40",
"b  c #514E4A",
"n  c #47504B",
"m  c #4E514C",
"M  c #545046",
"N  c #5B5344",
"B  c #5F5846",
"V  c #53524D",
"C  c #5A554C",
"Z  c #5D594D",
"A  c #4F5551",
"S  c #545551",
"D  c #595752",
"F  c #565954",
"G  c #5B5A55",
"H  c #565F5A",
"J  c #5D5D59",
"K  c #615A47",
"L  c #625B4B",
"P  c #685F4E",
"I  c #635D53",
"U  c #615E5A",
"Y  c #5D615C",
"T  c #67604E",
"R  c #69604F",
"E  c #666154",
"W  c #6C6455",
"Q  c #63625D",
"!  c #69665E",
"~  c #6F6858",
"^  c #736C5D",
"/  c #666561",
"(  c #696661",
")  c #676863",
"_  c #6C6A65",
"`  c #6C6D68",
"'  c #716D69",
"]  c #72716C",
"[  c #797673",
"{  c #847D6C",
"}  c #87806D",
"|  c #8F8774",
" . c #918674",
".. c #908875",
/* pixels */
"V C J F b D b t l U U J D G D U b j U D D D S m S G l h S b b b j j S b 9 z j j t h j t t h : 9 9 5 9 1 5 1 5 & O ; : - - = - - ",
"C Q Q Q ( U L l b D S D J J D ( b p G U S V S U c b j b b b j b b p j x j t j j h r t t j t : t 9 : : 6 - = - - : v p & O O O = ",
"V Y Q / C I ( C l J D J J U ' [ b p S l x S U S l b b b j b h b j p b x b h b p p t t t t h - t t 9 5 1 9 4 7 % = V c ; = o O * ",
"V Y ! M e j C C ! Q / J U U U ' c t G I D l h p l b h b D h p V b 9 t S h 9 h t 9 9 9 t j h - h j 5 5 5 5 5 4 9 & + @ X - = o = ",
"D ! d L c U J D D J J D [ ( Q _ l a C _ I l G Z b h b U j t b V b j 9 j b h h 9 t h t b c t r t t 9 9 9 - 4 4 4 : & & & l # & ; ",
"D V I N I c U / Y Q J / J Q J Q x U V M C b D G b V Q h t b S U Q S j 9 b S b z b p j j r b j 5 t 9 q 5 1 4 5 4 5 9 @ - , j & - ",
"G 8 d I V G D D V V S D S z Q Q / l U c a u V V b ( t 5 b U S D S D J h : t S h D j r e r C t t 9 p 9 0 - - 5 4 1 - - & @ - O : ",
"t p b b b b C D D J J U _ U z / U J D c d P c V ( j 9 b ( D V b S S D J h 9 x D C a W t r t j j t 5 g 9 9 4 - 1 - - ; 9 @ % O O ",
"h S V G b b S I U D S U / _ S S ] J G Z f  .~ c C t l l b D J D J A S j j j t b r ~  .v t j c j 9 9 t 9 9 : 9 : 5 : - - : % % o ",
"U S Q Q U U U ( U U I U ' / ' b Q ` _ V e K K a U V j j b J J U D D D j d r l M r K v e c c j t 6 t t t r 9 : 1 9 1 - - % - % & ",
"S S J / ( / U / U Q G ! ( ' Q ] l U Z t t l c a c v P I S S b l j b V j R K d t a t t 2 2 t t r p t r t t 9 9 1 1 1 : : - % % % ",
"D S U / / ( U ( Q ! U ! U ( ( / _ l U b b V l c a ^ P P j r b b l b 9 a R W W c b j t r j c 9 b t t 9 t t 9 9 5 - - : : - % % % ",
"b D ( ( ( _ U U Q ( U U U U U _ U b ! I b U D l M C j d c l b b b b j j a t l l l b b t t L t a t t t r 6 6 5 6 1 5 5 5 - - & & ",
"J b D b V S C b l C _ U _ U ' U 8 t V D / Q I j l C l k l l b j b j j t j j l t j b V b r t : 6 j t r r 9 r ; @ & - : : - - O : ",
"r b ( r r r d K P L D _ U ! ~ v c c D _ ( U U t l S c x b x x V b j j h j j h 9 j b V V V j r t b t r : t 1 r N d ; O % O I 9 O ",
"b l C V V l K W ' v i U ' ! i G D c b / I U U D l b m m S S b S j j b l h z k j b b V b D t r j b t j t 3 $ r I N e : : : 6 - - ",
"S D S l D Q G D C a c Z C a r j C / m m Q Y G G G F F / m m J F m S z h n z m m l l b V h l x t e - r : r e 2 6 : 1 5 = > > > * ",
"D b S J J Q J Q Q U I v c e c U / / J k l ) Q Y J g Y z n F D V b b b h g z 5 x x x S 8 y V x j t e % e r j t q 6 6 5 > 5 4 1 * ",
"D x l S m x G G S G c N  .f d b b b J J p z m z y F H F Y V F F b z z S n A z 5 y k 8 p S l t a t e e { r e t 9 1 6 1 > 4 * 5 > ",
"A k S S k S 7 q x 2 a i N i 6 6 6 t l G F m m m z h A z z z l m x z h y g h 0 g z k p V V 8 2 - & ; e t , ; O t & = q % > - > - ",
"m z A y V x 8 D Q F p G I V V D V E Z s Y / F Y x h m n z x z m b x g h y 8 9 h x z x x 3 C E l j t t e 6 - 9 r 5 % 5 - % - 5 - ",
"m S m x V p V S a n k p U Q U D Z Z Z l c m A g 9 J H S J m m m S m x S k x x - q k h 9 u E l a t t t t : 5 1 = 9 - = q = 0 7 - ",
"S x J S k S S n ` F A V q 6 p > 8 7 y 8 V x H F S h F h m S A S F S A x y S y h h x q q 7 7 > > & 6 = - t h 9 9 9 7 5 8 4 q 5 * ",
"S z V l p h h z m C Y l G S V S D F A V c V F Y H A h S h h S x z S t h x h x A x p q x A z z i j t r t - t 9 - 5 > * = - 0 - 4 ",
"9 x Y p y p h p q m G m q x x S l m m m F V y V G Y m p l k p t t j j x 9 j S b h 2 V V y n y 7 h q 1 * 7 y 6 - = * % * & V 8 o ",
"h D D J J J x x J J y F S h J k J p G m G l 6 6 k l V p t p j z x h h t t j h t - 8 V V l l 7 l 8 h 5 y y > b a 1 7 5 9 5 : 5 - ",
"x V J J F G x h C y k Y x h D k F k F F k 8 q q y 0 8 l D l p p t 9 h b j 6 5 9 6 p - p n a y n y h > 7 g - 1 8 - 1 > - 5 - 1 5 ",
"x S Y D J J H S n y n A k k D h m m F q 8 l b S V m c c c c S b A x j j j h h t p p 8 - y y y z 8 h * 0 g > & 5 8 0 - 5 5 - 5 - ",
"h k x m F S q A p 3 F k h m F z V k m y l V S F V m l l x x b S b b l k t j h t t h p 8 5 a 0 k h y g y 5 9 % : 9 4 - 7 5 - 4 - ",
"l k m S m 0 y z l p p y z z F x m F V s m V l l p p p h j k l k h t h t t t q q 5 t p h p k l k l z g y & : 2 t - - * 4 7 4 - - ",
"x S J F H Y z l M V p h k q J h m l m m V x h q h g t t t p h t t 9 t q t q q 9 8 q t l V l y p y k 4 7 : 5 j j * 5 z 4 - 4 4 - ",
"m x m D A g z z i u m h k p G h V p m 8 l c k t h y t h t h j t t t t t 8 8 q q 8 t p p 3 l 7 p 8 h 5 9 5 8 ; 6 - 0 4 - - - 4 - ",
"c l V D F g k x a t k h k p F h V h V 8 l m h y h p h h k p p p p p h t q 8 9 8 9 t q p q t 5 y q h > 5 - 8 - 3 ; 0 4 7 - - 4 - ",
"l m x m F F k h V D t h h 8 G k V x x x V V l y q t p h k h h p t q t q 8 8 9 6 8 q q l l p p h 8 h - 5 - - l s % 9 z 5 - 4 4 - ",
"k p h m l y p k c a k h h z F m m S m p x b l h h h k l x h h h p t p t q q t 9 0 q p q t h l g g 0 g 7 > 2 2 p - - * > 4 > > - ",
"h l y x z m k F q : S A z z m k m y x 9 p V l l m V V b l k k j k l j h h q p q 9 q t 9 6 p 7 g 0 g g y 0 8 @ , q 7 5 1 9 > - > ",
"h x m x m V m z k 8 q A g 7 m y m z z p 8 a l m l x x l l j j j l s a t p t t q 8 8 7 8 g h g h 5 y * 1 h * - 7 5 q 5 : > - > : ",
"h k x k m m p 8 V 6 g n k h x p m y n F n y p 1 q 8 6 V C j 8 q q 6 p c a 5 5 5 = 6 5 h x g 0 h 8 y 1 7 g > > 2 @ - 1 ; - = > : ",
"7 a h l l m n m c F y n x q m q k 8 n h Q c 1 q V l V l l c l p p l h t h l h q - = q k g y > y 7 q 1 q y * z 8 5 5 1 2 : = : & ",
"* y D 5 7 1 , > > V F g 8 k h l p k z k l l k V l m p t l h q 8 q p p h 6 t z t y 1 h 9 9 0 5 > q 7 1 % y y 8 = @ @ % & & l 5 X ",
"p z m p y y a h l l k q S k h p m a m p n m F A m k l V p y k p p l 8 q g g y y y q 7 p 8 p 7 q 8 0 2 7 - > - - 7 7 = = > y , > ",
"y y x k y p z y h p x z q t p 1 y 7 7 2 s s n p y p l y k l h h h h l k 7 k 0 5 7 p 1 1 = * 1 1 > y , & 7 y 1 9 7 7 2 6 7 y 4 * ",
"8 y g 0 l y y p 7 p p p V D V c V s Z l l k m p 7 m z p l p h p h h p m g p p = 7 p q 1 , M r t p q 8 t 1 5 1 = 8 * - p * 0 0 * ",
"6 2 q 1 y p = 7 p y 2 y r 6 q q r Z V s V m z m k , y 2 1 8 8 p 8 8 7 1 y 7 - y y 0 9 8 ; l Z 6 2 - = ; 1 * : 5 = @ 6 > % > * - ",
"0 , 2 5 , y 1 2 l & 2 , i < = - 1 u l V l y y z y y p y y p t t 8 t 8 y 0 p y > 0 y 5 9 9 1 ; & % & < e ; ; # a * > 5 @ > * - - ",
"5 y > y 7 y k p p l 3 i { u r l l a n l 1 y z z y k k l h p q q q p p p h y y 4 0 y 5 = 9 5 1 8 8 2 w } u 2 t 6 6 5 * 4 > - - % ",
"7 8 5 0 8 y y p y 8 a u i $ 1 y p k z 4 y m k k l 7 y 7 q y q q 8 p y y y y 4 y 4 7 q - * 7 4 5 5 - + 3 e u : ; - * - % - % - * ",
"5 2 2 2 7 y y 3 2 $ u s u 8 & 2 8 p y h l a p a k l z k q q p q q p 8 p g z a y 7 > - 9 5 0 5 1 = # 8 3 r , # ; = - - * - - - % ",
"1 , 3 = , = u C B u 3 u q p 3 M r : h l h t p t 5 9 9 7 6 6 : 5 ; - 6 5 4 9 9 : 5 5 : : 9 5 & 6 M y 3 2 1 # e L v 6 @ & $ , & & ",
"= 8 E $ $ = 3 N K s 8 y 6 5 t s r 6 q h t h h 1 5 5 5 5 : : 6 5 1 1 ; - 9 4 - - = 9 5 : : - = r c y > > 6 : e K d ; O O @ E 2 + ",
"6 ; 5 6 8 p 8 2 3 5 8 5 8 7 6 t 1 & 2 1 t y t 1 5 5 1 5 : 6 5 : 1 - 6 - 4 - : : > 9 : : & & O : q 5 > ; ; : & - = 1 , > 1 > % = ",
"- > 1 1 7 6 7 1 7 7 1 5 2 6 7 8 t r c 2 1 q 9 - 6 6 1 2 6 6 9 6 6 5 : : : - 2 6 = 9 5 ; : l 9 t 5 5 - ; : & : - ; - * - * % * @ ",
"* = - ; 1 1 1 > 4 1 5 1 1 8 8 7 t 1 t r : 1 : : , E L K t , t t a p = r K K W e - - - % 6 t : - = 4 : - : - = = = & * % % % % @ ",
"= = = - > 1 - - - 1 : 1 1 7 1 y 9 r r & # ; ; , 1 i d N r t r r 6 2 3 2 N f r w = & @ O & 9 - @ = = - - - & = = = * % % % @ % @ ",
"- @ * % = > > - - - 4 - - 5 8 > 6 1 t e # e t , 2 6 : 2 e 6 6 2 6 5 1 ; ; ; e ; # r e O e - & - % > - - - & - = % = O % % = o * ",
"% % % * @ * * * = & = - = 5 - 1 6 1 : ; w { I : 6 & ; 5 6 9 : 1 1 1 5 ; - : & 2 & L { , & - - - * = - % & & % % % % % o - % o O ",
"O % % % - & % & = = % - 4 4 4 4 : 9 @ & , C : : 9 - % 6 t 1 : : ; 1 5 8 1 * 5 1 - % b ; O O & & = % 4 - * - % % % % & : O O O O ",
"5 o & # % > - 5 4 4 - - - 9 9 - 9 & r 2 < O - : & 6 - % - 5 5 5 : 1 5 : @ 6 9 % - % @ ; ; t O - % = 4 - = = - - 4 - & O O & X 5 ",
"- - j , & O 9 5 4 : : - - - - : O 9 j 9 ; 1 - 5 r : : : : : : : 5 : ; 1 6 6 * - : % : - , a t O = % = - - - - - - 4 o O , j - - ",
"> & $ l ; % % 5 5 4 4 - - = - 4 & & t : ; ; = & & & ; : 1 - & & * & - 9 5 * - % % - - - & : # & = % % % * 4 - - - o O - d & = = ",
"* o % - O O . = 9 - : : - - - - - % - % - - : - & & - : > - & % & - 5 : & - @ & % - - % % % o - = % % % - - = - %   X . ; % X = ",
"% o X @ = l S O o 9 - : - - % - % % - % & & & - : : & & % - % - - - : % = @ 6 - - - % o % % o - * % % % 1 = 4 o O V c ; & o o & ",
"% X X o o 9 x - o O o O % O O - - O - - : - & : : : & & - - % - & % * 5 @ & 1 - - % % - - % O - % O % % @ o O O & c t @ o o o & ",
"- % % * % O % o O % % % % % % - % O - - - & : & & & : & - - = : - = - - & 1 = - % - - - - - O % % % % % % % & O . ; & & & & = - "
};
