/* XPM */
static char *_528031243021[] = {
/* columns rows colors chars-per-pixel */
"64 64 106 2 ",
"   c #1B170B",
".  c #1E1A0D",
"X  c #1F1B11",
"o  c #231D0D",
"O  c #291E0A",
"+  c #221E11",
"@  c #26210E",
"#  c #2A210F",
"$  c #262113",
"%  c #2B2414",
"&  c #2E2915",
"*  c #2B2619",
"=  c #2E291B",
"-  c #302716",
";  c #312916",
":  c #332C1D",
">  c #392E1D",
",  c #36311E",
"<  c #3B311E",
"1  c #2F2D21",
"2  c #342E21",
"3  c #382F21",
"4  c #363123",
"5  c #3B3424",
"6  c #3E3826",
"7  c #363328",
"8  c #3C3629",
"9  c #3E392B",
"0  c #3F3C30",
"q  c #413624",
"w  c #433926",
"e  c #493D26",
"r  c #413729",
"t  c #433C2C",
"y  c #493E2C",
"u  c #433E31",
"i  c #493F31",
"p  c #46412D",
"a  c #4A412E",
"s  c #51442E",
"d  c #54482E",
"f  c #5F4F2E",
"g  c #464133",
"h  c #4B4433",
"j  c #4E4936",
"k  c #474538",
"l  c #4B4639",
"z  c #4E493A",
"x  c #524634",
"c  c #534A36",
"v  c #5A4C36",
"b  c #504738",
"n  c #534C3B",
"m  c #5B4E3B",
"M  c #5E5035",
"N  c #56503D",
"B  c #5B523D",
"V  c #614E37",
"C  c #614F3A",
"Z  c #625236",
"A  c #62543C",
"S  c #69563D",
"D  c #66583E",
"F  c #6A593D",
"G  c #534E41",
"H  c #594F40",
"J  c #565242",
"K  c #5B5442",
"L  c #5E5945",
"P  c #5B5748",
"I  c #5E5949",
"U  c #625642",
"Y  c #635A45",
"T  c #6B5C43",
"R  c #635D4A",
"E  c #6A5E4A",
"W  c #725F45",
"Q  c #6D6046",
"!  c #66614C",
"~  c #6B624C",
"^  c #736245",
"/  c #796646",
"(  c #72654C",
")  c #78684F",
"_  c #676455",
"`  c #6B6452",
"'  c #6E6855",
"]  c #6E6858",
"[  c #736652",
"{  c #736A54",
"}  c #7A6C52",
"|  c #736C5A",
" . c #7A6E59",
".. c #7D7157",
"X. c #77715E",
"o. c #7C715B",
"O. c #7B7563",
"+. c #83745B",
"@. c #87795C",
"#. c #897B5F",
"$. c #827964",
"%. c #897D64",
"&. c #8A7F69",
"*. c #92846B",
"=. c #9A8D74",
"-. c #968A74",
/* pixels */
"J ` R ! R ' ] , J X.R O.I 6 N Q E ( @.*.*.+.D .. .B > L ....$.d A %.@.#...o.X.& P O.! X.P 4 b L R ' O.$.O.| _ O.| h = P ] ] _ 8 ",
"b | O.O.' ! _ 2 g ` L B J 4 L Y ~ [ E ~ } ( %.=.} L , n Y F Y a c o.%.#.( L R 6 g L N N N 4 N K R Y m n n h ` { P u 3 k n n h 8 ",
"t g b B J j n u = P K ! R w a A U U m x y < e B m a : m ..Q B a a a v B B c B 6 : J R ! L 9 j B J n z t r 8 r G b 8 2 G I K n 8 ",
"t n h h z z J 0 : z ! ! R 9 p L c x h H L N h B Y K 8 R ) Q R h h L x x N n N 5 1 n R I P 4 h j h u u z n z u z P i 5 G J J z 8 ",
"1 g g 9 t k 7 $ X 8 t k g $ 8 8 3 > : n y t r r t 6 o : t a z 6 * r t 6 9 9 4   + 8 9 y 4 + 4 5 5 : 3 u 8 5 3 7 2 1 X 1 9 9 0 1 ",
"4 = , 8 4 $ 4 9 8 9 g p 7 8 * h ] H H r b B % b j > t 5 6 5 5 t t 8 6 b t $ 9 z g g b h 8 u = G _ H H i K H $ P G 7 u 8 8 7 0 g ",
"J K K ' _ 5 9 N n J R B b J t B ) U U v A E q +.$.D N N c N L ! Y ! ! $.| 6 y z n B L z j n r z K m m i b n 5 R I n g n z z G G ",
"z L R ! K 4 , p h m N c c h 6 6 U C C C x x < i M c e B B M c c B Y Q R m > 8 g h J n c b h 8 w H v H m x u : i z g 6 n b c h g ",
"N P I L n u 9 5 g h j b j h 8 4 m U C U C i > i n B a h B d N d B R Q K j k p 7 p p z j h r 4 5 n m n m z r 2 t h n 6 t j j g k ",
"h n N k h 9 k = , 6 y h t 6 : ; y i i i i r - r p s a ; j c j j c N c h p 8 g , = 8 w h 6 8 * * r y r r u 3 $ 8 8 y 8 * t g p g ",
"5 8 7 , 4 $ = , $ $ : 6 5 5 : * 2 > 3 2 q q O > w e < # < w p , 6 w 5 < , @ 1 4 - * 6 5 6 2 3 2 3 2 2 1 r r : w t t , $ 7 9 9 4 ",
"j I P J k 9 l , t K R m h : P U n h 2 % T +.&.=.@.Q B B ~ ~ ! g p ] | ~ N j J 5 h E E K m 3 P P G i = 2 J ` | X.` U m n ! R ! 9 ",
"L R J L K N L p > K W T U i U B K m g 6 v F W ^ F D D ^ ( ( Q h J L B B B L L 6 5 m T T H i H b b b u 8 x B D B A v B E ! L J 9 ",
"t j n n N n n 9 3 h m S U i y c n n h : v v Z S F M A F F Z B p p N B B B N N 6 q x C C m y r l b z 8 3 j s M M v x m n m c j 8 ",
"4 j N N n n z r q h i x i y 3 u h n 8 % c d v M c x c s s j N 9 6 N N B N N N 5 t i i x i r 3 8 u l = = c h c h g h y w 9 g g 4 ",
"4 0 0 p g g u % % q < 5 r 5 % 2 * = o O p a e < < > - & & , , . , p w p g p 5 @ - q < > 5 3 = = + = + + 6 t 5 4 ; * * * & = 1 X ",
"0 p j 4 1 p p 4 5 i c b : i U i i r n x y q y U N @ a ( ( N n s c n L 5 3 m x i i C H U 3 z H l i i H l y 9 x _ h * R O.' J J n ",
"I J P 0 0 n B ! E E E E u x U U H x C m m x h m L , ) *...Q ( ` ! B R g x H U [ W E E U i x H U n h v b h u r u h 2 U ` L J L L ",
"k k z t t g n B H m H H r q K U x x C S A m s 4 , % < d B Z B M j c N y i x m U U m U H q i U U i l H H m b i 5 = + r h n n b h ",
"z k z t 4 p h N v i i H r t C C y x K C A U m x , @ g j d B B B N j n 8 9 x v H v b c m r i m x q b m v m n b u 1 + g h h n n n ",
"z k b 8 9 h h x c b i G 8 8 h y 5 x c x n m x y p & g s d c n n n c N 8 i c v v c b x b < r h q 3 b i i h h r 8 7 * 6 p p p g g ",
"8 8 8 2 4 t y w 3 8 8 r + % : # % 5 t y > 4 5 5 , @ 6 p p p p 6 6 w 5 , r y i e y r 3 5 % 4 2 o : r i i : * 8 8 7 $ t 0 g g 0 7 ",
"9 n i r i i b x E H + r K ` L & A ! { o.! > x J L j B ! ( ~ B 6 y T s c v C C v +.v % x ~ [ B > E E [  .R 4 n B N j J R ! R N 5 ",
"t l x y x c m b m v 3 u K Y L t m D D U ~ t h B L ! B B Q B B p y v c s x C C C v x 5 c A A B 5 c B m m J r h b L I n N N z k 8 ",
"r i x y 8 r i r y i 3 i j h p 5 w a a a 0 5 p N R ! B B D B N p y m v i e i v y d a < N v c t 6 a a g p 6 7 0 N N J z z n j k 8 ",
"2 t i q : + 3 r r r * 2 p 9 , % 5 5 w 6 6 = 6 n j g 6 6 p p a 6 - s y e ; # > y p 6 # < e y % * < 6 p 6 5 * 9 k p 8 , , 7 6 9 1 ",
"2 5 q q w 6 * + 2 u + - , 6 , & 5 , ; g p & , , @ < w < w a s w e d s d y V q O p d , < w a 9 a p , : j p 1 7 * @ 6 p t a h p p ",
"R ` E [ [ | O.n y | L P L ! R X.X.L 7 P ! I z 5 , L Q ^ T T T T ) } ) } +.+.=.y N | Q ! ~ ~ ~ X.| n t N P J z 5 7 L R Y U L B R ",
"B U m n h a m h : J K L R j z j h h 0 , 9 g j k 6 B T T V V V S T T Z V y d C q p Q L ! ! c M N j j w p p j z p r m v m x x v v ",
"n n x x y y h 5 : z N n j j N I N j 7 p p p j g , M v V V V V V V Z v m d V C > p L M N c N L ! N n 9 j j j N 6 q c c v c c x x ",
"x h x b x y g 8 * z l g j z z N n n 8 0 k g k p 5 c m v C V v x v c V A m h c - p B j k B B B B N h 5 N n z z w 6 x x h a y y y ",
"u 4 6 6 9 : % = + 7 7 8 9 0 9 4 8 4 % 4 t 6 t , @ , 6 5 y y y e e w q w t ; : + & < 6 p p 6 < 6 6 , , g h y t 2 O 4 : 8 h h u 9 ",
"g I n n j N L : = _ J R I : 4 h b n R E E Y x E ~ L ; h ....' a x ~ A U B ~ ! & j ..B ' Y , j B D Q ( ( ~ Q N ' | j = J ' _ L 8 ",
"h I R ! R K ! g 4 J N N K 6 y J R E Y Y U B Y *.{ A , j B D B e c T T ! Y T Q p j L N Y L 6 M Q ( ( Q Q U a Q o.T h : z m b h 6 ",
"t g x H n j z l * p N I I p w H K K m h p 6 9 n B h , p D n L a x c B S B M B p ; B Q { Q p f Q Q Y N d x e s Y Y h > n J n n 8 ",
"0 z h h h z z k * k K R L g 9 n x x h h h J h n Y J 5 B B B N p a U v c B B B 6 , B ! ` Q 6 N D c d h M U A c U R b 4 B m m z 8 ",
"7 0 k u 0 k 9 *   7 0 g k * = u 5 3 ; r t t 9 w y t @ : p j j 5 % p a a g p 5 . @ t p h t o w e p < 5 i y a w p r : . 5 y g t = ",
"8 2 2 8 8 = = 8 1 7 p g 8 4 2 2 ` H h g p B * p z 4 , 8 5 5 5 p t 5 6 t p & 9 p t y c c w a : j } D C v A m & B J 6 u w 9 9 t g ",
"J J G P I 0 4 l j z K N j n g r Y C U c c B 6 N ! B h c n c N ! Y Q ~ ! R t j m v Y ~ B m U a c T T T S D v w T E N c B N N J G ",
"z J K U J 9 = y g n N j h x u 3 b H C H x h < p n x t n B M n c N Q ~ ~ B , 6 c c D D A B M t t T F F T A d < v Z v e A N m b j ",
"z J P L z 0 8 7 u u h n c h 0 2 i H H H m i 3 r c N a w B n N c N ! Q L N p 9 6 j d N M c s 6 6 U S S S A s < c m B t a m m j j ",
"z k z z k 8 8 4 = 8 r g w 6 2 * y i i i i y - r t a h ; y c j c c N j d p 6 p , ; 6 s c a p & > x s c x x q # p p s w % y h h g ",
"u 8 8 1 4 * * 1 = % 2 r 8 6 4 : 3 3 7 3 5 8 O : w t 6 & % y t 5 6 6 6 6 , & 6 , ; > p p t w w , q q 3 , e w ; e s a w & 6 h p : ",
"0 k G z k 0 k 0 3 b H c h : n I i i 3 + h n Y E ( Y m v Y E ! j 9 R L L n n L < a R T D c 5 ! U m c : > D W / } } ^ S T ~ ! ! p ",
"z n n N N z N j = i m U U t i n n b h 4 x A T S F D A T Q Q B s N Y B K K K ! p < M S W T a T A C A x q F / / / ^ Z F / / Q N 9 ",
"0 k j j z z z g : t c C m h 8 g b z h * x x v C A d M D B M N g 6 N B B M N B 9 w v Z S S y a v B B y , Z f F F Z M F S A M N 5 ",
"7 k z N j j k g 3 h y i i i 4 w g l u $ h s v v d h j s s j N 0 < B B B K K N 6 y m x x c y r h h n 2 * M Z Z M c c c a a j z 4 ",
"7 0 p p k k 8 * + 3 5 5 6 r 2 2 * = $ . 6 y a 5 , , & & , , , @ , p p p p p , @ % w w q r 5 > ; % % % ; p s p < , - % , , 4 4 . ",
"k 7 k 0 1 i i r r i x i r 2 i i t 6 u h h q r m K % t [ { B N p g j m 4 3 m m m x H H H : x E B m d Y U d e B [ c & Q $.{ R L N ",
"G G G k 7 l G P R P P H l 8 b U H h c m c h r r b 5 m ` Q L ! ! K n K u h v U W ( W E U r x T ^ A v D S A v s w h : B ~ Y D L K ",
"z k k g 8 u i G H G H H i 3 n U b y m H v m c q * $ , h M N B N j n G t i x C U U C U U q x T ^ v v W T F F v w % % a c B N N c ",
"G k k 0 1 u i b i i i b u 5 c b t y m m m H m l 7 + 6 j j n N N N c H w 6 h v H m b v H e i A v e m T Z D Y A c 2 * a c c N N m ",
"k k k u 7 u i i l i i i u 3 u u 2 u h i a j h 0 t = 5 k h h z j z h n 8 r b x v i b v i , 9 h 5 < x s x v m a a 7 & p p a h k k ",
"k 0 8 8 2 0 u i r r 7 3 * + 3 + + 8 t i 6 : 8 9 9 * 4 p p g 0 6 6 h 9 5 q i i y i y 3 r & < 5 o , y v c q - p p 0 & p j c h p 4 ",
"0 k k 9 u i b i G G 1 1 i G H 2 8 n K L n 8 p N J n n K ! ! N p r m h s C m C U U v - i D ! B , ( ) @.) U , B Y ! B L ! ! R N 6 ",
"0 u k t r l b i i i 8 5 b n G r w h n b n t 0 z K R J N B B N p r c c y i i V i v i q b B B N 6 s Z Z V m 8 j B ! ! B B L N n 6 ",
"u i h i 5 r u u u l 7 7 i u u 3 9 p t p g 7 6 j J N N c N n n h w n x y 5 r i i j a , j j j p 6 j d s s k 5 j N L B c N N z z 6 ",
"8 4 h 8 3 + * 3 r r 1 * r 8 3 + 1 , 5 6 8 , 1 k k t 4 5 6 t p w # t y w > o - q p 6 @ , p 9 @ @ & , 9 w 5 @ 6 h p 6 , < 5 w p 1 ",
"k 8 t y i r 5 % * k 2 1 3 r r 7 9 7 * 8 9 1 * 4 o , w r q t y w y a d v m n y O 6 N 6 6 p j j j n 6 , N n p 9 & @ s c d d n h h ",
"G P H K H K I P 1 G G P P P H P I J 7 0 k z k 0 1 N Y Y D A A A T Y D U U U ` h p ! ! ! ! B K ! ! j 9 N B B N t 6 ! Q Q F D B B ",
"G H n n p y h h = k J G P l z z k k 0 8 9 g h k , j B A v v v C A A v v y x m 5 6 L J L L j N N j j 6 p p j N p r m A C v v v v ",
"b z b h g t p t = 0 z k i l z J z k 9 8 g u k j , a c c v v v v c v v B x i c 5 7 J N N j N L L N N 6 j k j N t 5 n m v m c c c ",
"z k g b j y 0 0 + k G k k z z z z G 8 0 g g g 0 4 t j x b b x h h h h b n 8 i 3 1 z k k N z z N N k 7 z l k l 9 : h h x b h h a ",
"G u r i u 9 * 7 X 8 8 0 7 9 0 0 0 0 * 7 0 9 g g * = g w u y w t p a p h u 3 1 1 1 0 9 9 9 6 0 0 0 9 1 p u u k u = 8 i u i u u u "
};
