/* XPM */
static char *_528031229801[] = {
/* columns rows colors chars-per-pixel */
"64 64 121 2 ",
"   c #171E28",
".  c #1D2027",
"X  c #1E232D",
"o  c #23262E",
"O  c #28272D",
"+  c #25282F",
"@  c #28292E",
"#  c #212630",
"$  c #242B34",
"%  c #2A2D35",
"&  c #262D39",
"*  c #2A2E39",
"=  c #302F35",
"-  c #2B3036",
";  c #273039",
":  c #2C323C",
">  c #32343C",
",  c #3A363D",
"<  c #35383F",
"1  c #2E3641",
"2  c #2F3942",
"3  c #323641",
"4  c #3A3740",
"5  c #343A44",
"6  c #3B3C44",
"7  c #353D4A",
"8  c #3A3E4A",
"9  c #433D44",
"0  c #493F47",
"q  c #3D4047",
"w  c #36414B",
"e  c #3C424D",
"r  c #3D4552",
"t  c #3F4953",
"y  c #404146",
"u  c #43434C",
"i  c #4A454C",
"p  c #4D484F",
"a  c #424652",
"s  c #434A55",
"d  c #4A4B55",
"f  c #454D5A",
"g  c #4A4E5A",
"h  c #514D54",
"j  c #46505C",
"k  c #4B525D",
"l  c #515055",
"z  c #51545E",
"x  c #58565B",
"c  c #474E60",
"v  c #475261",
"b  c #4D5562",
"n  c #4E5965",
"m  c #4F576A",
"M  c #4F5A6A",
"N  c #515662",
"B  c #535A65",
"V  c #595B66",
"C  c #505769",
"Z  c #545D6B",
"A  c #595E6B",
"S  c #565E71",
"D  c #585F71",
"F  c #55616D",
"G  c #5B626D",
"H  c #5E696F",
"J  c #556272",
"K  c #5C6473",
"L  c #5E6974",
"P  c #566278",
"I  c #5B6679",
"U  c #5D697A",
"Y  c #62656E",
"T  c #616672",
"R  c #636A75",
"E  c #696D77",
"W  c #646C7A",
"Q  c #696E7B",
"!  c #66717C",
"~  c #6B727D",
"^  c #6E797F",
"/  c #71747D",
"(  c #666F80",
")  c #667282",
"_  c #6C7582",
"`  c #6E7984",
"'  c #6D7A8A",
"]  c #717683",
"[  c #737A85",
"{  c #797C86",
"}  c #747D8A",
"|  c #787E8B",
" . c #76808D",
".. c #7A838D",
"X. c #778392",
"o. c #7D8592",
"O. c #7E8995",
"+. c #7D8B98",
"@. c #818693",
"#. c #838B95",
"$. c #848D9A",
"%. c #898F9B",
"&. c #869197",
"*. c #86909C",
"=. c #8A929D",
"-. c #8793A1",
";. c #8C95A3",
":. c #8D98A1",
">. c #929CA5",
",. c #939CA9",
"<. c #97A1AA",
"1. c #9BA3AD",
"2. c #97A5B2",
"3. c #9BA5B0",
"4. c #9FA8B1",
"5. c #A0A7AF",
"6. c #A2AAB4",
"7. c #ABB3BE",
"8. c #AEB9BF",
"9. c #BCC5CE",
"0. c #C2CAD5",
/* pixels */
"A 6 s d 8 a a d N N > w E e : e b 2 ; & e V t 7 2 2 7 r I ;.( b b f t s s v f 1 5 0 7 I E % 6 h h i , 6 s s q w @ w z G s B ~ Y ",
"Y q B A g g N N A [ H w - & j ! =.B w 2 $ ; : 1 7 t Z ) O.;.O.' } ` ! W I Z D W 7 3 8 8 : & = , , = % = < 5 q 7 u H n B t g ~ H ",
"Y q g g g N c s s s V L < L  .=.` W F F F 7 f Z W _ ' W F A F K S S K P I J ( $.$.8 7 3 & * > < q y h x F z z k G F V F e w Y B ",
"R 6 k T T A V b f g s Z ^ e f [ U F F J ! K U J I J Z I } ~ Q Q } W S M Z m Z C { k 7 u E E Y V k V G A z z n z M F G B w 5 ~ z ",
"/ > f T A Z A D j j f f _ o.; F ` J F J Z J F M M Z M Z Q _ O. .I S S S m C Z V R 0 1 3 g h a a 6 % 5 g k z B G F Z G B e < ` F ",
"V : A L G A Z I Z v S b ^ ! ; f +.J F Z J Z M v v b M M M F | Z g S m C Z m 5 8 a d k V V V R [ { G x w : k F G F F F A k ; t ! ",
": s G A A D D I W Z F n R e 2 F Q Z F M K L v v v m m M Z M v S D S S S f 8 ( @.| { [ Q T T A B N s ..d < G B G A B B B j f 5 R ",
"w G G b Z K I T W I Z B G 2 r R L M M F J F F M m M M M M M Z S S S I v r ] ] ] [ A C b g Z N b N g 5 5 G H F F Z B M n k z s w ",
"T Z N g b I I W I b n F e : b ` H F F F ! H F M M M S v P M C C S I b 7 T [ g Z A A Z R ^ ~ E R E B 2 [ Q F Z Z A b n k b k b e ",
"L A N N T L Z Z L ~ f R s 1 k ) H F M J B M F M M M S f J S Z Z S P C N a a K Q W Q Q ] ..L k s 7 # b ~ R K Z B Z Z A V B n z k ",
"F Z N B L b 7 n K K Z L Z 7 v ) ! n F F B F H F J M L r J J C S J P ' Q b k a W T g u 5 - < w e j z U W L K Z b B F B b F M A B ",
"A A Z Z F t B g K ! K U J 7 c `  .H H F H j ! F P J W f s K D D J I Z 3...g Z 7 $ 4 * # > s E H E ! Q R Q L K L K F V F F B B Z ",
"K I A A f J ,.F r M J ) R 7 f I  ...t <.&.e F L J U J ` 7 c C C J K k | T a T T K _ A 5 3 e R R R !  ...G _ ~ ! L L F F F x F k ",
"T I T f L 6.` X.c r J ( Z 7 t ` 3.~ w ! G q n L J U R ! 6 ( ( N Z A R 8 6 A E I T I _ A 3 7 R ..^ k &.9.~ L } L F G R H F F F F ",
"W I A r <.6.A _ } t S ' Z 7 t ) :.! k e l l H H J R L s N Q I { } b G Z A _ F V I I o.N 5 8 s ~  .z B  .[ g [ M G R R L H F F F ",
"W A Q ~ R $.` W T r [ X.Z 8 e ) =.H H ! l F H ! ! L F s ] A c I ) f K N B A A I K T Q a 6 8 r @.H ! x s q L E Z o.G G L H F H F ",
"_ [ o.Z g ..Q T R 5 2 1 * 7 7 ,.,.( W R B G R H W E Z 8 R R C ] b r J A Z A D I I Q W 8 7 o k #.F H R E G R V ! %.N L Q W W R L ",
"o.W t 5 8 Q ] G T 8 # 7 r 1 1 [ $.' R T G Y R H I W R g V R T D B 8 Q T T E ] } [ ~ $.V & > k H G H Y G H H N =.,.n ! ~ L ! R ! ",
"g r c 8 < E Q A Q f 1 t f 8 & & f ( } [ ~ ^ Q ! ` _ %.A b T ( ( D a Q E E Q R |  .| O.a o > z F F G H G H G #.~ ~ ] G L E `  .^ ",
"a 8 3 $ > T ~ T ] v f } _ b C a & a D a s s d g c f 0 3 N T ( ] K 3 $ % % * % 3 3 3 > o * 8 k G B k x F G Q B # 7 ! @.%.~ ~ G s ",
"7 7 c D a N ] T ~ k t } [ #.7.L 1 : % + - - - - : = % 3 g A W _ T 5 5 a 8 8 8 4 5 5 6 3 < 6 r F &.G G B B k * 3 8 8 ] W : 5 7 e ",
"I -.%.| a z { V ~ L w W ` ~ ..~ a 8 % > y u i 6 9 : 9 B d A R K N f ] | ] D ] G V E T E Q d 3 k @.B e s e : > g 8 8 8 1 : e 8 r ",
"o.| ( I 3 z $.f _ K r U ! _ ~ [ @.s 5 : i g d i 4 3 d R g G K F C f } } } ' } | ] V N Y Q g 3 r - & 7 4 6 g R R N g 0 8 Z s K +.",
"I D D D 0 d ] ( ' 7 t L L U R Q @.k * 4 d h h d 0 4 z V g V N B B s S ( I I W W ( E T T F k 1 $ % 6 s V [ | | o.#.B & a @.;.;.} ",
"W D D D E 8 f } v t c t f Q W L [ B > 6 h h p p d = s N g G k s ] f Z I D I D D K I ( | $.Z a 3 B Q ( { Q R ( T ..e $ u } :.K I ",
"D ( ( D T N 0 f r c U 6.j t _ L _ G 3 4 p h p 6 > a R ] k [ s ~ Z r Z Z T ( I Z C D R D | [ a Q { E T V ( R T D Q 3 < z | A Q W ",
"P D D D S I A a ~ f Z <.Y q ~ Y Q E 5 6 p h 9 u E $.=.K e J #.B 5 C K S D T D C b D I W @.T G ] A Y ] E R T C Q B & 8 Y [ L ( U ",
"P I W I D S Y T J Z 7 s e k ! G E Q 8 , i d , N 6.[ v k k r b 7 C K D Q Z B C A _ T B E I Q { A Y T Y T T T V W s $ e R E U P U ",
"I Q W I Z Z A N N Z b s F E Q G T _ s > 0 i > u Q | g k N r 7 F K D I K T Z D { E K A I D @.E G A T T T T A T T 3 & s R R ! L L ",
"W } Z K K J D N N Z B T L R R Y K [ k - , , < k A K f g k f n Z Z J K J D _ | Q D T D D C T V T Y A V V A I R B & & B ^ L ! U U ",
"W } g t W K V N B B K A V G V G Y ..G % % O 3 T N s a k v Z b n A J T R A I T T K K D C A E N N z N R T a 0 G f # : H ` L ! U P ",
"J Q Q r f Z C N J Z G F n F G G E O.[ ; 4 Y { V g d b N N W Z I J A K G K W T K A D T z ] A V z N { V E R z 8 > o : +.! R J U U ",
"Z W ' s k B b Z N C Z A V A A V ^ :.+.< g 6./ i d s k n F v F J Z A F L F T K K I A D V A N A A 8 W A N V T T V s 8 N g N I D Z ",
"D D b a s k v b Z B K R A A A T ` 4.=.e : Y u u s j k n F J I P M M Z V F G D A T D V A V V V V 0 m { N A A E ] T A k s 8 8 K S ",
"Z c g f b k b S C S E ( T K D E :.<.d < : g d l s d n M F J J J F M F F A A A I T B T A A V V V N 9 > > 0 B V Y T z C T ( 1 a W ",
"C N g b Z b A J T K D K T K R $...q > * - d g a k k w n J J F J F F Z Z Z A N A Z L N N A V N V C g 8 9 4 * 3 6 V Q T s V ` 1 s ",
"B C c N D W W K I I I T D T | Z 5 > , 9 < q l s F H &.n t H F J F F Z Z N B Z A T Z r s B x V g N Y Y R { 4 X * * q Q _ N b 8 8 ",
"Z C b W o.I D J I W I D D ' ] * > 6 0 y - u ^ B q ^ 8.H e G F F Z B B Z N N f c W e W g k E [ >.l V N E Q % * 4 E g 8 6 1 5 v S ",
"S C D D K S J K I ( I T ( } 8 1 4 3 = , - < x d t t B s j F F B n n n B b m a g z k _ G g G H <.N N V V 8 % * b  .V N b K U P S ",
"Z C C Z K U S P W S I ( ( v f S W [ &.@.s - f s j l t s n n k z b M b Z B N f B k ! B ! G B f q g N Y u > > 8 { L ~ 1.L v b v Z ",
"C S S D ) S S P F G b Q I _ X.o.$.+.2.:.e : s V u k k k g j f k k k k k k j L k B [ k G ~ s G l l V / 6 > > g O.s =.0.~ e b j M ",
"C S M ( ) ( I v O.$.w F ' ) ( ' ' ' +.' e 5 u / A k z k z R G z G G G F n k A T d Y G G x u x G l V V > < > E R k n F f B F j B ",
"J J J ' I W c ( $.T R e Z ) ( ) ) ' *.R s 7 5 - < 5 < 5 q < < < 6 6 6 q q q q 5 q A A A d 5 l z u d q > 3 u [ q k R G z k n B B ",
"S J ) +.' J g ;.N e ..B F _ _ ' X.X.I s q % % - < : : - $ ; ; ; $ . O O @ o - $ 6 V z k d : : : < : > $ u u G G k z F g s B n Z ",
"' } $.$.I 7 N R a A Q k : e d Y [ s 7 e 5 A F s j t t e q w 2 w : o 9 9 = @ q q 7 N N z d q t r r e q 2 : w e [ G L W ! R G ! ~ ",
"( W S s 7 : g N k B Z a # 3 > 6 s 5 5 s ~ [ ! .. .X.O..... .<...@ - y y > : G G 8 V N A j j  .L L W  .M w w ; . $ : : 7 e s j V ",
"7 8 r 8 8 * g A A N N s # 5 > 5 6 3 k [ ` k B G L L H ! ! ! >.+.- < q < < G ..H s E A A V q ` _ _ _ -.! w : $ w 5 2 w w 2 7 2 w ",
"8 3 & * 7 * g T A N B g g Q s $ 5 B ~ L F H L E H n M F F n ! _ : > > - Y  .Y G q A B A V w R R L L _ X.t : w t t w r j b j t t ",
"C v : s B n s G G N A g 8 } A   G  .G ! Y G H L L J L J J B L ^ 2 X + B #.R ^ F e Q d z V 7 J P R R ! _ #.U w ! :.} U v j t v v ",
") K s  .! z q A N k Z a 5 Q W * V G F ! F F H ! ! L J M F n R ! ; + q 5.z >.5.f 7 ..f s k w F P H H R G K ) F ` F L ! ) `  .' ) ",
"W j F E G r r x g g V 0 8 ~ Z & B G F L H ! B j F L L F n B ! H w 2 s 1.F q k s G z _ G w j P M G H L H B M } Z M F k F J J I I ",
"F F ! z G w e B s a V 8 8 ~ B & k A ] ..E B <.<.w L R F F J ` +.t w k &.#.G x / ` B A f 7 J m v Z F H F I Z U W B M F B F J J J ",
"F Z V k k e ; k s 3 Y 7 7 Q f : B F V F R k L ..5 F ! F R ! ^  .t w k O...^ Q ! ! ! f w v P ( ( I F J F Z Z Z K F n M M U U F J ",
"G M k B B k r 2 z E z 7 s W g $ R ..n n F H e w e G ! R  .` !  .j w k &. .L L R E ! F F ( m P ( J J J J v f M Z F F M J ) U M v ",
"n n k k K V B s w t ; 3 B L s # e L n F L R L B F G ~ q ; e t j e w t L k e b W ! ) G I m P ( ( I U J J M f v Z F F M L U J t w ",
"t F k k j k k F t ; 7 j A L r # > f f b ! ! H H H ^ s F 2.O. .~ E E G F N F b s K ) F P ( P m ( P J U M m v b C F J F F J t t w ",
"w z n s f z n M n t k k n ! t - ^ &.B F H R H _ G k W [ E E E T G G Y Y G A A A c m D S S ( S S U ' U S Z m b m F J M F n 2 ! ..",
"s w n z j F M M B f n L F X.t > H j s F H R J ! s * L f a N z N V z g V A A e B | 7 c I P P S ( ' n ) S J S S S F F F F X t ^ ^ ",
"..w j F F F b b j 2. .j ) &.s < H x n n B H F J W t 1 0 g l l V E R V V T G B k 8 7 Z D S P S ' v w } b S D S J J M M t - ^ n F ",
"{ w f F n z k b j &. .t ! +.f ; ^ E j n n M n M I U c * a T N N Y Y Y E T [ b $ 5 D D D S ( ' ( & j } c C D C K J n t t w ..H H ",
"Q 7 s V Z Z s b H r Z F ) +.r ; w ..k H F M n P I ( ) v 1 5 7 3 - + % > - 7 $ b D T T D K W ` 6 & a ) b N D K C b k k n w [ Y Y ",
"~ < k L F J b b V F L I L  .U 2 - k ^ n J J M J ! ) I ) ( ` } 7 % % 6 * + % 8 ] _ D I I D ) g % > 9 ~ A v N Z s s B G E w ^ G Y ",
"~ < G ..~ _ ) ` ! Q O.' J F  .t 2 2 U J J I M J ) ) X.X.( (  .a % > 9 i 6 < a a Z } [ ( ( ] d 6 x l Y  .T K A A ~ A e R p / / Y ",
"Y 7 & & & 1 7 e r 7 r L ` ` j w w t L  .J U ( I F v t 7 8 r s u * % , , 9 > : 7 3 Z _ [ } Z p l Y x d ~ O.` R _ Y q z x w / ..Y "
};
