/* XPM */
static char *_528031293376[] = {
/* columns rows colors chars-per-pixel */
"64 64 129 2 ",
"   c #19150C",
".  c #18180E",
"X  c #1C1A13",
"o  c #1F1E1A",
"O  c #211E16",
"+  c #211F1A",
"@  c #252116",
"#  c #25231B",
"$  c #29261D",
"%  c #2D291E",
"&  c #312614",
"*  c #332C1E",
"=  c #262521",
"-  c #2A2721",
";  c #2D2B23",
":  c #2E2E29",
">  c #322E24",
",  c #392F23",
"<  c #322F28",
"1  c #343126",
"2  c #3A3326",
"3  c #35332B",
"4  c #3A362C",
"5  c #3D392D",
"6  c #363530",
"7  c #393731",
"8  c #373832",
"9  c #3D3B33",
"0  c #3E3D39",
"q  c #403726",
"w  c #433A26",
"e  c #43372B",
"r  c #423B2E",
"t  c #4A3F2B",
"y  c #413D33",
"u  c #423F38",
"i  c #444136",
"p  c #4A4335",
"a  c #45433A",
"s  c #49463B",
"d  c #4C493D",
"f  c #504736",
"g  c #544C37",
"h  c #524B3C",
"j  c #594F3E",
"k  c #595637",
"l  c #57503E",
"z  c #5C533E",
"x  c #5D593E",
"c  c #464540",
"v  c #4A4741",
"b  c #474842",
"n  c #4D4B42",
"m  c #4D4E48",
"M  c #514E43",
"N  c #584F40",
"B  c #514F49",
"V  c #4F504B",
"C  c #545145",
"Z  c #5B5445",
"A  c #5E5943",
"S  c #55534B",
"D  c #59564B",
"F  c #5C594D",
"G  c #565550",
"H  c #5A5750",
"J  c #575852",
"K  c #5D5B53",
"L  c #5F5E59",
"P  c #615640",
"I  c #625946",
"U  c #635C4C",
"Y  c #695E4A",
"T  c #625E53",
"R  c #625F5A",
"E  c #69614E",
"W  c #6E6B4C",
"Q  c #646155",
"!  c #6A6454",
"~  c #6E6956",
"^  c #64635A",
"/  c #69665C",
"(  c #6D6A5D",
")  c #726753",
"_  c #726A53",
"`  c #7A6E56",
"'  c #736D5C",
"]  c #757156",
"[  c #77705E",
"{  c #7C715D",
"}  c #666762",
"|  c #696660",
" . c #6D6B62",
".. c #6E6D68",
"X. c #716E63",
"o. c #757164",
"O. c #7A7464",
"+. c #75736A",
"@. c #79766B",
"#. c #7C796D",
"$. c #787772",
"%. c #7D7B72",
"&. c #837964",
"*. c #827C6B",
"=. c #817E74",
"-. c #827F78",
";. c #89826F",
":. c #848174",
">. c #8A8472",
",. c #8F8875",
"<. c #84837A",
"1. c #89867C",
"2. c #8C897D",
"3. c #918A7A",
"4. c #988F7E",
"5. c #8D8B82",
"6. c #908E82",
"7. c #959185",
"8. c #9D9181",
"9. c #95948C",
"0. c #9A968D",
"q. c #9D998C",
"w. c #9B9993",
"e. c #A19986",
"r. c #A09D96",
"t. c #ABA390",
"y. c #AAA498",
"u. c #ADACA3",
"i. c #BBB3A0",
/* pixels */
"[ ! Z ~ ' ! ~ *.#.=.=.~ ! T ' U ( <...C Q m a V L J G ^ D a n U ^ A A ~ ' I E ;.,.;.;.~ I A ! E Z s 9 8 0 8 m H B B B H v D  .R ",
"*.~ X.q.q.' o.*.q.7.y.7.@.' Q O.D C  .L F S V c V a c J b # X 1 C i C [ O.l Z E [ ' #.! Z Z h U Z ^ ^ b J V J } } T | | ^ o.M M ",
"> > , - > $ - , 2 > * > 1 1 1 5 ~ d d } s V J 3 b 3 o b G m b 0 5 4 3 3 ; % % 1 , - 3 5 1 1 > - - c ^ | G B L ..| L R | | | D F ",
"u 2 > > > - , > * > , , 2 2 5 3 S F 8 K L s V ; y 9 # w.u.-...+.+.( y ../ ..+. .$.T M K R H K +.R v n R L u B Z S R m H R ! M M ",
";.{ ( O.3.*.[ 4.i.t.8.{ &.P i 2 A A 9 a K S V ; a y = 9.5.w.w.w.-.H y K i d h C s y y 7 7 T y D 7 H B G R  .T T  .s / ' ' *.O.{ ",
"e p t p Z I g Z ! ) ! z _ P 1 % T F 8 m m J V ; C s ; %.-.w.9.w.5.K y n D C C a y T O.X.y T 4 y 4 s m S , s h h C , Z ! Y ! I P ",
"! T D % $ 4 5 5 * 5 y 1 i d C 1 F ! 5 S m m S : 4 i 6 } ..$...+.$.K n 9 C o.Q / 7 K -.+.7 w.s Z u B + u 7 > , 3 > 3 4 > 1 Z Z h ",
":.<.M > - ^ -.2.C %.5.( / 9.5.2 ] >.1 a d s V 0 5 M n a 0 b 8 9 y s D n K S i D m 7 a 4 $ Q y D s Z + y v c v M s d y 1 # M X.D ",
"o.o.Q a a S %.%.s %.%.T S +.-., ;.,.8 C d m b a J l S } 8 S 8 d C s S S :.o.F d S # 3 ..T R ! / T X.K 3 S K B M n y y 9 4 H / M ",
"/ o.n 3 3 F @.+.s :.<.^ D +.-.1 ;.#.i @.a d m a C S J ^ a S a a n n K 3 a C 5 : J 8 s 1.@.X.%.#.X.#.^ 4 0 a S m y 9 9 3 - v X.M ",
"T o.( 8 3 ^ o.o.s @.+.H C #.$.4 ] ] i  .0 8 s b ^ <.+.K 8 K d 9 n m K 9 d s d a y 9 s .. .-.-.O./ X.R 2 T y a c 6 9 a 9 3 S Q M ",
"X.o.d 9 9 Q %.#.s %.:.K / 0.5.1 s W 3 8 m L a K L G T ^ 3 m s y n C n a a C C y a 1 a @.*.2.=./ K ! T X y D < B u 4 7 7 ; s Q M ",
"^ @.Q 8 3 T  .o.m ..=. .L -.$.9 % d d m J  .i a h m F S 1 S d u s i C i d d d h d y 4 1 % s r p 5 r 6 7 r C 1 8 4 3 < 6 3 K ( d ",
"> * 1 y u 4 3 3 ; : 3 3 ; 6 3 6 5 i d m V Q 5 % d C T C 1 m 0 9 6 $ a 5 V F F ^ Q 9 a 8 @ s r p , 5 < M i C 3 4 9 ; : = = < > 3 ",
"#.6.V 9 a 8 o.2.2.2.9.u.u.7.2.<.:.y 8 m d ^ d d i 0 s V 3 b 3 5 n C d s d d s d d y m Q 5 r 2 e , r - < 9 F 1 6 > 3 ^ V C d i T ",
"@.<.( S Q a ( @.X.o.#.2.5.#.o.#.o.m 3 V d Q 8 @ h h S ^ 0 0 a 5 o.O.X.#.@.@.O.( ( d a a 5 r 2 , , 2 3 y i D 3 S V 8 C s m m d D ",
"2 i y > 3 $ 1 9 2 2 r 4 5 5 r r r i i J s C 3 d F  .$.L a : 9 9 Q / Q Q ~ Q F Q F i 4 s p r i r 4 + y U p h 1 n 3 % i r r p w z ",
", * 1 9 y 9 > 4 5 2 5 w r t i 5 * * 9 9 3 5 4 5 4 K K m m 9 3 * Z / Q T F Q D S F y 3 i i i r 1 < v u , 2 p - i > > * * * * & w ",
"] ~ *.=.#.+.i 3 s i s 5 d Q C 6 d F C l d i d C M S M F / s C C i 1 5 y 5 3 < 1 4 i s n C d s 8 b D S 5 $ y - a : s M h h h z Z ",
"C C D D d C D i i 9 5 1 9 s s 0 S i 5 5 4 4 4 8 4 9 3 s F 9 d C C d y y 9 6 0 8 0 s n n s s 9 8 m C s a > y , s ; n M M h h Z Y ",
"D C s s s d C 9 9 3 : ; 3 0 0 a y M R T S C i d a a 4 v U 2 u M F D i i 8 8 3 3 5 a b s a 8 0 3 s m b i * y 1 a 1 s 5 2 5 2 w s ",
"( ( U Q ( Q 9 5 d d b m a a 9 9 4 s N D d d s 9 s s u y y r u s C T s n b y i a b 0 0 y 0 y 3 : ; 6 5 % 5 r 3 s 3 5 d M D M D Z ",
"i p y s i a 4 m J C J S C 3 8 8 3 y M s s s n 3 B | D 0 n S M N D C 9 K ^ S K L / C m C  . .C n i 5 4 p I 2 4 8 4 4 5 r 2 y y d ",
"l d p s 9 d m y : 3 1 8 i 8 8 3 4 y s y y y a y 3 3 u 9 u s M D M C y s S Q ( ( Q b a i b s 0 i i i i i g p y 9 < s Z s s f i y ",
"S D y a d h a 8 s d d 0 i y 6 6 4 i a y y u y r < y y y y u h M D p e 4 9 i 5 i a 3 ; ; : 3 > > % 1 > 4 C A 9 6 ; ; < > 1 ; i i ",
"C a 9 d a 9 : 0 J Q T F 4 i 3 1 4 5 4 4 9 r y y y u 9 u s s M s M D s 3 y y i 9 i : 9 y 5 i 5 9 i 5 - 5 s s 1 8 # = < 1 ; ; 2 p ",
"s i d S i 9 : 3 r p 2 C i i 3 1 5 5 a e e r M y 4 u u u u u v v n M s 0 5 8 5 9 9 9 i i a i a 5 > 1 ; 5 1 5 i 0 6 1 9 i < $ 5 f ",
"a s d C 9 a a : y 2 i Z 9 9 6 4 y y y y s y u y u a s c u y u u y a a c a 0 y 9 9 m ^ L K Q  .D s i 5 9 s s d a m 6 6 a 3 - 4 s ",
"a d a b s 9 d 0 1 i 5 4 a a 8 1 y e r y r y u < ; : 3 ; 9 u < 9 4 9 a y 9 y 9 y 1 % 4 1 1 1 9 2 9 i * 1 , > 1 1 ; ; y s 9 > 3 u ",
"d 0 a m i 9 0 s 3 d > d C D d d i y M w y u - B : n K y u a y y y y i i i i a s i d s p s i p p s i i 5 4 4 4 4 > < 9 a u - 5 f ",
"m a l d 8 9 9 s 3 a ^ D ( Q U ^ i s D y y y # K < u S y a y y 5 5 y r 9 i s h i i s i d h p p i i f i r 2 2 5 5 < 4 a n 3 > 5 f ",
"S d d d 9 d 9 h d 1 5 i i i 9 5 i M s s u 9 + n 3 7 B 7 9 s s y y y y a d i i i d i C l p d i f l r r i 2 e 3 3 > 4 a a 3 4 e u ",
"D 9 a d u a 6 S n i Q Q o.Q Q ~ O.( O. .( 4 O b 3 - 0 3 3 8 9 8 4 3 < 3 9 7 v a 8 a C F W U A S f g l l i i w 4 1 5 i s 1 1 i l ",
"C a s a d d 9 S a T / n F S C S D b C C d 1 $ u 3 o # o o # # # o # # # # = $ a x a 9 p k a h l A d d l d d 2 i 3 ; 9 9 3 5 2 p ",
"C u ^ F a s 9 C 8 C 3 C 5 9 0 0 u u K 5 s a # $ 9 5 3 3 6 i 9 8 4 3 8 7 < 9 < @ 5 d V k s p p a 5 i l C D C u d M $ % 1 > 9 5 f ",
"C 0 J G s a 9 5 9 / 5 n a 8 8 0 8 0 ^ a s a : # # ; ; ; ; $ = $ ; # ; - - - a > ; 8 i 9 3 d U k Z K ^ / ^ Q 3 $ y 1 s 5 4 i i x ",
"S a b m a n a 9 s F i 3 7 6 B K J i u b a m D a - ; - : : $ o = o o o o + X 6 < : 9 b d a C  .( Q  . .(  .( 5 d C C d i s 8 l E ",
"S a F J i n 5 b i C h U 7 7 m S U a b C i < m b < 3 7 6 0 9 = 0 8 0 8 0 : X v 3 ; 0 0 a 9 m Q Q / Q ^ ~ Q ^ s J i 5 2 C d 5 f C ",
"J 9 L L a S ; i C p &.O.; 3 a b M y i 8 0 6 c c 3 6 0 9 u a = G m b c m 9 X D y . : : : 3 m / Q X.( (  ./ / a a 5 n 9 d i 1 Z A ",
"T a y a s C 3 O > 2 t A 9 : 3 0 8 % a 8 3 b b a 3 3 9 0 8 9 3 J m m m V c X h U ; : 8 b = b Q F U Q F J J F i 9 i Q E Q ^ C U ' ",
"F a m C a d s a 3 5 5 8 9 3 m S C 4 b 0 Q s 8 a ; 8 9 u u 8 = m c u a b b o # m s 9 i C 1 i / T T Q T U ! / 3 3 i s M I D P I { ",
"A a Q ..h S C S n m a 8 3 : V } Q 5 i 9 b b y a 3 a u y a 8 ; a 9 9 s s y $ $ # * % % % 5 5 a a d d a i a s 2 5 i r r d 2 p P { ",
"d ^ V s k C V K D S 8 a 8 # 0 m d 1 d s a b s 9 = m S d m a 9 s 0 y s s d s n d d d C s 8 3 d i d V S s 5 m Z n 1 9 y 5 a * U &.",
"a a ^ d V m d C K G 3 a u ; 8 S i 5 n d C b y b u s s i 3 3 # 5 5 5 8 0 5 > i 9 5 i 9 a S 8 y a u i 9 9 l i S ' s 9 9 8 d i A &.",
"S d 5 m s m d s <.#.: b a ; 8 K a 5 i Q #.X.X.2.X.$. .L F b # y 9 4 y a i d #.( T a 9 a S 3 8 8 u 9 C s C r U Z d , 1 1 i C A _ ",
"d d a s a s 9 d C L 6 u a 1 3 n i 2 5 D r 2 4 $ . @ 0 8 5 a - 4 4 4 9 5 5 $ > - S h 9 V J a 9 8 3 d 5 5 5 d f C r 4 a a 5 5 j ) ",
"d 9 i a d S V d s n s T n > 4 S D 2 5 C y y r y 9 a m S b C < 0 y y 9 s M s s < s i d } ^ K s 3 5 9 2 S r s h y 1 D K C M 5 p E ",
"d d 3 3 C o. .J S Q S D a 3 3 M Z 2 w Z 4 3 y s b a 9 i a a # 3 3 4 4 9 5 O a < h i 8 J C a d m i 1 d 5 5 p a y 3 s r % i i 2 g ",
"C S ; ; 5 s r y % @ % % 9 5 ; a 4 2 5 l * 5 $ 3 4 9 u a a i # 1 3 5 1 5 9 : y i a 5 a b 8 / @./ y 3 5 d M 4 4 u < n 7 $ s 5 2 g ",
"3 % n 2.#. .U o.#.C a Q d 1 : d 4 > 5 s % 3 , 1 4 9 u 0 9 s ; 3 i i d d a l S S D C m u 8 J s 4 y 1 i i , 3 4 y ; v y 5 d y * C ",
"O X 9 X.F F F A U l 5 D F i o 0 4 y > r # # # > # 7 s V v d , y k C F K x d C h C C a 6 9 a . @ p s 1 1 y t > 9 > v y , d s $ $ ",
"u 4 . % d d Z p > % 5 3 @ : % 8 4 s 2 y @ @ # o X 6 s 9 y a 3 3 d C S x d V F F K C u 0 = 3 1 p E k 1 @ 5 3 > y < n 9 > d 5 3 9 ",
"^ U > % s C d I $ # l s ; a 3 3 3 s 5 e > 3 - = o 3 0 3 3 6 - + % % % % $ d C F J d 9 a # % p g ] x r 4 y r 4 < 4 M 5 1 d 1 i m ",
"d u d a . 3 > 4 % = d s % A 5 : , u 4 5 4 y 3 a 8 8 6 8 8 9 0 9 C m s p d 9 8 3 8 4 0 m y 1 * i p w i 5 5 9 7 6 3 d 4 > d 1 2 p ",
"5 y 3 i 3 % : 8 3 ; s s % m 3 % 3 y 3 5 , , 6 6 : : = = = ; : ; ; > ; : : : 8 8 1 : 5 d s i p i 2 y s 1 3 y 7 < 1 i 3 ; i 1 3 d ",
"9 9 5 i 3 5 8 a 9 : i y % 5 % 1 < y 2 r % > 3 3 ..H 9 ^ L o = ; O m ..9 m  .a : s d y 9 8 y s 1 2 > 1 < y 9 4 < > 9 5 1 i ; 3 g ",
"y 9 1 5 - 9 8 a a : a a % r ; 5 4 y 5 f > > 9 6 X.^ M / X.r y y 4 F o.h S o.s 3 Z i 5 5 5 5 3 3 y 4 < - > - 3 > % y 5 > 9 - 1 i ",
"5 3 , 3 ; 7 7 0 8 : a i % 9 % 5 2 2 y X., > a 3 M a 4 y p q * 2 1 1 l r y D i 5 2 p p i 5 y 9 y 9 y < Z O.2 > > $ y - % y % 2 i ",
"5 4 2 9 - 3 9 7 = = m m : y : 5 5 y , D 3 * a : ; ; - % * $ % $ @ % 2 1 % 3 ; 5 w ] W ] h a i a u u 5 y ~ p % 7 4 a 3 0 s % 1 i ",
"% 1 $ u u 3 a 9 b 9 1 5 % s 1 s 5 y e 3 y 3 y 3 v u $ 1 y 5 y s Q Q C s y K 8 3 5 x k x d d a d s s 1 2 r r 4 < 1 5 y n s 1 % i ",
"1 ; % 1 8 5 4 4 K D i i i i % d r h 4 t r 3 a < v 9 3 d D F T I s h h y y M 4 4 3 i p p s s u s s y 2 y r 2 y 7 , % 3 5 5 > * 5 ",
"a 0 y i 0 a 8 3 a d * * q * 1 d y h y M y 9 7 < n s s T ( ' p I ) T T M p h 4 7 4 M s n M s s s s s y h , * 2 r 4 7 r 5 u y 5 i ",
"C C C a i s i 5 l C l Q Q W A d y h u y h a 4 4 M M h T T ' e.;.f 5 , % i F 3 2 y M M N B M s p s f s f g h y p y i u t f h p p ",
"n C d s s d i i s h i p 9 i p 9 y M h h p i 7 y s p T O.{ *.P e f s s 5 i F y 3 i M M M d h s s M f N Z Z Z M Z s s h g f g f g "
};
