/* XPM */
static char *_528031261228[] = {
/* columns rows colors chars-per-pixel */
"64 64 80 1 ",
"  c #24292E",
". c #262D32",
"X c #282E34",
"o c #2B3136",
"O c #2D343A",
"+ c #353536",
"@ c #383637",
"# c #34363A",
"$ c #393738",
"% c #343A3D",
"& c #3A3B3D",
"* c #48433F",
"= c #363D41",
"- c #3B3E42",
"; c #413F40",
": c #374045",
"> c #3D4245",
", c #3E4449",
"< c #424445",
"1 c #4B4642",
"2 c #474946",
"3 c #4B4945",
"4 c #42464A",
"5 c #494748",
"6 c #44494D",
"7 c #4A4C4C",
"8 c #504B47",
"9 c #514E4B",
"0 c #4E504F",
"q c #51504E",
"w c #464C51",
"e c #4A4E52",
"r c #514F50",
"t c #4D5155",
"y c #4E5459",
"u c #515354",
"i c #585657",
"p c #52565A",
"a c #595759",
"s c #54595D",
"d c #5A5B5D",
"f c #535760",
"g c #565C62",
"h c #595E63",
"j c #576065",
"k c #5C6165",
"l c #5E6469",
"z c #606265",
"x c #61666B",
"c c #64696E",
"v c #6B6C6E",
"b c #656C71",
"n c #696E73",
"m c #706F74",
"M c #6B7176",
"N c #6D747A",
"B c #717276",
"V c #71767C",
"C c #72797E",
"Z c #757C82",
"A c #787E84",
"S c #778085",
"D c #7A8186",
"F c #7D848A",
"G c #81878D",
"H c #82898E",
"J c gray54",
"K c #858C91",
"L c #888F95",
"P c #8B9397",
"I c #8C9399",
"U c #90949B",
"Y c #949B9F",
"T c #959CA3",
"R c #989FA5",
"E c #9BA2A5",
"W c #9EA4A9",
"Q c #A6ABAE",
"! c #A6AEB1",
"~ c #B0B7BD",
/* pixels */
"wtsjljjfjjffffywww6yywyfffyywyyyt,=,,,,ytwyewwwwwwe7w6www-,,,==,",
"Y!QEWRTIKAZZAZZZZAAFFFSASASSKKFFEb=SPFFFZVCNZNNMMnnbbxcbbbbbbZyf",
"EDlMy;wwwwyyffyfghxhgkhpppfsfsgkFj.NCjclklbvlkxcxxxbbxxxhlbZFI:,",
"Fkkaf--w-ywyy,,-4,--====%%%%##=6Zjobl%OO%>,>>644677wywww--==fF,,",
"Dx;a6;w-wwweywww444ww;4<---=##-=bgolV>dvi<742222245<44--=-==,Z,,",
"An-&;hhggfftwwwyww4ew;46>>;--%--xgXxS>dua<76232*<24<446-;66;,Zw,",
"Zbt6fzhhyyytyeyfppewwe5665654;->xjXxN><a>2020222556e6wwew;y6,x,,",
"bbppe4--=-->46wweweeee7767766644xjoxC6&$@20023777e6ewwwtwnNfwZw,",
"Zxye4--4>4<6ee46wwwww77eere;ee;;ghXxZt>><2tt27776ew4;yywwfaa;x;;",
"Zbwe64666w4epppetttttweew;rr;;ZfpsohAktwt6tut00eeww4wwfyw;f;fc,w",
"Zxwyw4666eeeytepyyttt66erw;fefdapgogFkssstpuuutty;wwwwyyy;-;yj,,",
"Zjee6we6664eppeyyyye647rr5f;r;urehogHjtskksuuusupfyfywwyutwayZ,w",
"AZ-weprrppeeypppppyw6tee77rwe;==ehOpGxgbvk07tuuutpppgpwyyyyyyl--",
"Alwweeeueeppppdggpptda765e5wwe;;shOsGHDxe2700000eepywtyyyfyfyfw,",
"Zjwyterrppppfggggsspptre55e5;ywwfzXtHSh4>2u929u0eupptpewphgfflw-",
"Zfwfstppupppppppfsppptprr666wye;xxXyFVt><2quq000tetteyte4--fwly,",
"ZljyyeyyttusppppssygyypewwwwyuewlloyDVgw7220i0007uuettty,,%>0,6,",
"ZZwwwweetttutpyyssssyteeereryffejloySVguus0yu000uutyppy,,,,,jy=,",
"blyyewee7etttttypssytttuuyyyfayrjjoyVCljkldsspyypppppsjysyyskFw,",
"bxffyyyfttttyyppsssyyptyyppayffyljoyVClnnbckzkssppdpppyyjssy0Fj=",
"Mnlhfgggjssppspppfyyyyypgggggggflj#pNSNMMclsuy00eypyttyyteep,My:",
"MZbbxxbxlljjgggjghghhjkhhhlhhhhhbjOhNVdcs,,,,,,,,,,,,,,t6,e7,lt,",
"lLKKHVnnllllllllxllllkhhhxccnNZVZlogbHSj,>>>,,,,6,,,,,,,>kvd,jt:",
"hFHMhffyutpppssjgggspyyffafffpfhAxXfn~D0,,,,6,2,wwwtyyy,<it06jt:",
"hAnyvve666676646666,6,66-,--hd;;NlosNSt,7,777ew0tt,7tew6<>u;4hy=",
"gZbyvdi7776<>>>>-------,-,-wnay-Ng.sSNw,,6eee00762,,wetw6>$4ecy#",
"fZNe3i277762244,,,6,444,---;7i4-ny.yCNw6,6eet0766,,,,etwt67uwMhO",
"fCVe&$;077766666ww6w66,-4-4;$$$-n,ogCcdlu,7t062222,:,,tt774rwbjo",
"pMMye6t77t7w7w77ww666444w--4;;;,n,osVlu0060t77622,,,,>4tywwwwlh=",
"tbMteet777e77t7twwww64444--<<<;6M:osZz&a>70tw7066,224,4eywww6lh.",
"exZywee7767tt0tttwwww44----4<44eN:osZb&+&0wt007226,,4744tywy,llX",
"4bAfeeee77t00ttppyyywyw44>>-;46eN:opGv72uu000w07w72,464,4yywfhl=",
",lZy6et70q37quupyyyywyte6<>>,,,pM,OtMlyt000000t,0,t,2,7,,0ytejbO",
"4lZy6wee03700utpyfwwywtett6,>,,sC,O,Scyt0720wwtt0ttt2,,6,6typjbo",
"6lNge6we0000uuppfyyyyyyepsw4,>6tM,OtSlt7227027,0yy,06,,66,esfjMo",
"wxZgw66w7tt0tttyyyfwywettt7t6466bwotVlyw0*00,,7tt,ty7,22,2epgjNO",
"wcAhpe464wtettypppyyyteyte7ww66pCyojSju0777tj,,w,tyt,t6,,6ewplNO",
"wxLZcxlhgspyspypyypspyypttt7e,tyNj.yDnjpww00ss0wttysyw6,>4wwyln=",
"txWIUGCckjssypyyjpssyyst7776wtyylj.wFFjyyt00tut0tyt,yw62-4wytxC=",
"ybTFZbgt,44tyyggsyytsyttt7ttysgflbowSC0y,tsppsttyyttwyt66>7twgD%",
"wZZgy;-,,66wyyyyyytpgywettpssgfjlNO,CV,typpssuttyspptttue644wtV=",
"wZZf--wwtttyytywtytpfyfhpssjlbZSFLO,NNtjsjjsddsjptyypsst664tstl=",
"wZbw6wyw7etpyyyygpppyffhjjlnMNMNSF=,SC,pyppssjjdkjgsstptep4eyyl=",
"yZlwtttt0tppysfspphgyfffggsyt,,,sS>,Vcw,,w0udkjdskpteeteeu46wyl=",
"yZCttwte7ttepfafppafyttttt,66,,6sV:::.,p06usklkxkdt,6ee667,6wfh=",
"yAPywye67ue6wyyaryrypetttttweete,%oo,NSs,60sddjkhtspweeutww7wfb=",
"yZLjtu67euypyyfuuurettttt0ttteteyb,:EE,%,6utssjjttsp7etttwtttyl:",
"yMMNue67errfgyauuryptpywtw7teetslY,:EN%:,2000uutsutt77twwtfytyj=",
"fZwbct767tysspu0iuuppspete7te76,6N->Ib#4,627,0sjjs0077eeehhhefbO",
"yV,wVstt7ttyspuqquiusptupet7te6,wb=,AZy42,2700tsgd00reeeeppptbZO",
"pN,%kcue7tepau7q9quuuutpt077072>4n>,ZVpcp42,660ttu007eeerreehDZ%",
"pb,,6cltt77tpq7qqq99uppt0732202,wn>4Vgznk6,,2200t00tpppruuglZZA=",
"pb4<>unstt7tu7qqqq99q000773222<>pN>,Vc5uq747u0ywt0tputuashhbhyb=",
"tN>xm6pcpu7qqqq9qq9970q073322<,,wc=,Bc;;&ut66wpputttskhprrhp4wh-",
"tM>cdi4hkp7uqq8qq8qqq9893*32*27>4b,-Nn6><7w660tytpsddau75ar;=wl,",
"wn>2a<7tzkuu9qq8qq8qq888332*2Jv7>b=-Ncpe44tttpuuassu7727er;zzth=",
"4n4#$;77skatq79888q8888****<qdt2-x%%NUp670uidsdjauu739i7u64diag-",
">c6&&-><euaiq998q8888**3**,2*<3+>l#&NSptqdddzjdut07338q3r5#5r;h-",
"%xe#&&&><7ui98888888*8***2,2,$$+>kO%MAguqdkkzs0023388832r6$#+<h%",
"Oks#--%%>467r99988833**3>,-&=&-+<x -bAdpdzksq00073333*22ep;$-eh%",
"Osl%%=#%=><4er990993762>;:-%%O%Otv :bAshcljsuuuu71333377est>4th#",
"OsDlfkbgsspapuuuuu0paspp0666w,w6bM &bTDZMNbnMBMMxzdddsupyysteug#",
"=sbt,yyepjlxnMBVCNvllkgpyyytyysslbo%vHcss,t,wuykclMMnclllllgsnV-",
":= X....OX..oo%,t6OoXXoXoooOoooO.%O.=. %,,,,,>,6%=,7w66w6ty,>6e4"
};
