/* XPM */
static char *_528031249964[] = {
/* columns rows colors chars-per-pixel */
"64 64 60 1 ",
"  c #17140D",
". c #18140C",
"X c #1E1A0F",
"o c #1E1B14",
"O c #211D16",
"+ c #231F19",
"@ c #252116",
"# c #292217",
"$ c #26221A",
"% c #2A251B",
"& c #2D291E",
"* c #312B1E",
"= c #33301F",
"- c #2B2720",
"; c #2E2A22",
": c #332E23",
"> c #332F28",
", c #363125",
"< c #393326",
"1 c #3F3825",
"2 c #373329",
"3 c #3B352A",
"4 c #3E392C",
"5 c #3E3B31",
"6 c #41372D",
"7 c #413B2D",
"8 c #433D32",
"9 c #483F32",
"0 c #443F39",
"q c #46412E",
"w c #48412F",
"e c #464134",
"r c #4A4435",
"t c #4E4835",
"y c #464338",
"u c #4B453A",
"i c #4E483B",
"p c #504936",
"a c #50473E",
"s c #524C3D",
"d c #57503E",
"f c #58513E",
"g c #4F4840",
"h c #534D41",
"j c #565142",
"k c #5A5344",
"l c #5E5946",
"z c #575348",
"x c #5C564A",
"c c #5F5949",
"v c #615A47",
"b c #635C4C",
"n c #615C50",
"m c #67624F",
"M c #676151",
"N c #6B6453",
"B c #7D7562",
"V c #817966",
"C c #827968",
"Z c #8E8673",
/* pixels */
"788udeq,,,ecticcn408887eeushjq5e458udr7,:,8cusvvn89987re8usdje78",
":<4kc3eq5etiqeeeh884e833,*74te<;,<4kb3e88eii7r8rh884u813&,q<t4<,",
"787ie=1,45qeiteeu<8<&$@o<=1e,;*<4e4ie;1<488rst7eu<42%@OX2=<q,;&,",
"8uu;4,,<444qre77a0uu54:;jusrreeeeuu&4<:<4777rr77uyiy83>:dtstteee",
"3ey-;2223eereee4u4648806,ws7*,<338u-;<<<6rrt9988u3688708<qsq&=23",
"8ry2ze428isq<2278<63<803psurq<328y02ze4<7pa7<<,68>73<893ystte,32",
"yu;-5>%$:7w1<<<3838u886>i831788eeu>$5>%%*676<<<3838u884:sq22485e",
"@@$oXoO%&,qZVNccxjxu88g6<37r33,$$$OoXOO$*=9ZCNvxxzks88u4,4qy22>%",
"&&;&;<:>41kvufsuuu8>;>32cbvjugu#;;;:::,<43kvusfra08,*>43lncjyjy%",
";,<<<<46ertw*<7r998<<<88urq<338:::<<>>678uu9*,9r9082<>88yte<245=",
"t4<::<68447sr<1783<<<388j77e488>r7:::<46777fr11774<<<488f44q45e,",
"k<::<33<<:7r81,3u088838us8<43887j<*<<33<<*7ee3:3u890638usq<13qe<",
"ire87733<*r734887184444tiruprwr3ire74874<;e834886384438utruptee4",
"7q8,74,%&#7u41676,:&&&3e8rkMl77<777<74:#%#er33774<:-%:<88rfMz77,",
"gii7llfkjsssvfsBbbkjzzstuusihbhsssi7lljkjsudvddBbvxhkkspuusahbhs",
"uei4jp77iu9pbspvutirq71=<487rs8uuei5kp47itetmppvpupr973,<488us8u",
"e45;eq<qu34bkwr3:<234<:77<873e88848:r838r37bf9r3*<<64<:68<844889",
"u852eee8e<4sr7i2:<,,><7s37833r8eu84288r8y<7sr7s<:<,,<>6h47833r80",
"y5e5ye5y35hrr8u443>2uu88eei43iye98888e6035iur7a762>3uy0888u43uu8",
"$&>,,;%;:863:&$$ooo--+O%&&**:&%$$-:<:>%::841>&OO+O++;+O%;;&::;%%",
"5<49u8823890>O$O+oOOOoO+@,t76,384360u88,38ee>O+O++OOooOO#:u76346",
"2>23g2>&:<48:&>;;:>>>;5>esi48884,,33g<:;:<45:*::;->>>-8>7ss68803",
"880gu,3:<4<7:uu8058y2;08urr88477880au>3:<435<0u8060u2;08uur88748",
"7:34-+-&--:<#::<<828$:2:tkr52:374>33-----&:>+:,,26,8%:3:rlr7<>28",
"33+.ooooOO$$%%%%>:::6767fNdqur7843O.OOOoOO$%%%*&,:,:6767fNswuw77",
"8r6&;$%--;:588y:uhg8fvbktptkvlki884%-#---;>6580;uhi8fvmfuppfbvjs",
"s73&;&$&;::2&:<%8ug967r,7768s717s83*;&+-;2>>;::&euse17r<6779t767",
"wr:8y5yey34uy3uju9h8=<,6797777riru:7e4u0y36uu3ujies7=<:7697677ri",
",w<khkiuyuizx8eu88u7*1*67767qqq7,e<khxsruigzzeey8eu4*1*37q47qqq7",
"1su77u345843g82e8ur7*j31dr767771<du58u434544g82e8eeq*k41sr417767",
"*%<rjjgi8ugugu5huuha@,,**<677w6,&&3ejjhieujygi8huiju%,,**<47qw1=",
"u88ur35:$&<3y2&5:*<84<37wppufltteq5uy38;@-,3e2*4,&3e4<<7rpitlkit",
"ur8ut77:,&4k9uxkx38rtrriuihslw8uteeri74*:&4keuxkx38uuteiutdilqee",
"&<6kv6e8eris7rrrj844eq2<**81t7,*:24jn7r88rsi7urrh873e833*:e<t7,,",
"488ue*3<477wsu88y343%$Oo<*17**:,4e4i8*3<487usr7er243%#OX<,<q,:*<",
"8uu:7<><4477rr68uriu84::jtsrrreequy=7<><7777tr77uyie54<:jrttreee",
"38u%:<><4err9r78u2545884,wp7**<33ey$*<<<7rru8r88u4458487,qdq**33",
"8uy2z8638itq<<<68<83<8e4tstte2338yy,ke5<7pp7<><68,73<5r3tstte<32",
"yu;$5:%$*7w16=,3938r884,uq33558eei;-5,$$*7q6<<,3838u888:tq12488y",
"$O$OoOO%&,qZCNvxxhks88i4244y42,$$$$ooOO$*=7ZVNvxxjki88u5,<4e32,$",
";;;=:,,,33kvufhuu08>;,63xbvjuhe%--;;;,:<33kvwfdruu8,>24<lmcjujy$",
";,2,<2449ut7*,8r998<<<86rrq3178::,3<,244eup7*,rr8883,>88tee<375,",
"u4<,:<44767jr<3784,<2309k778478:r4<::<35777dr<<4643,,688j47q458<",
"j<,,,332<:79w1:3u8908490s7<43887j<:<<<3<<=7rq1,40000668ui7<4488<",
"ire74744<;9817775<86466gprtprrr7ire77764:*r7<4776384248utrrirer<",
"4e7:44>#*+9u36763<:;-;307ujMk78:7q7,71:#&#er4<776<:&*:<97rkMf7q2",
"sis7vlkxjsssvfdBbbvszkgauusajvhhsis4llkkjsidvffBbvkhzkssutsijbsi",
"teu6fs66pa7pMppbwpa9983<<678us8urei8kp67iu7pbspvrtsr871=<488rseu",
"e78:9838r36nf9r1:3<332,782843888968>ee2ee43mdqe4*<<332,78<843y89",
"u76>08u89<6hr7i<:22:,<8g44834989u832e8eee24de7i2*<<:227s44734908",
"0688884u38hur8u752;2yye8e8u73ar088y8ee4y37gyeeu552;3uyy888u73ue8",
"%-<,:>-:>842<%O++oo-;$o&&&&*:;%+%-::,&%=>e43,&$$Ooo--$o$-***:;%%",
"6360a88,35ee:@$OOOOoooO$$,u74<386348u5e237eu>@@OOOooooo-@:u74<35",
",>,2a<:*;245;&,;;;2>>;8>5is48884,><3i,,&&335,;>&;>,,>;5>8ss78884",
"889gu>4>2425>yy5858y2;88uuu84448888gu>3;2334,yu8555y2;y8urr84448",
"6:34-+--;&=,$,,<28>8$><,ulr8<:386:34;$&&&&;<$,,,2535-;2:rxr83:38",
"34$ ooooOO$$%%;&<:>:7737kNh8urq743O oooooo$$$&;&<:,>7867jNs7ar77",
"e54%-----;>555y=uha8kvbfupakbxji985%;$---:,555e:uhs8kvbfrspfbvks",
"ie2&;-$-;>>,::,&8use17r<6779i747g84%-&$-;>:>::,&8us8<79<6769p766",
"et>5y5u8e43yu3yjuus7*<,67974q7rirr:7y8y8y36uu3uha9h7*<,7697677ru",
"=q<zhxheuuhjxy0u7ru7*<*677677ee7<r<kjkhruiizzeey7rr7*1*37737r7r7",
"1st48u344845u5<87rr7*d66dw767771<su87u344e43i82e7rr7*k41sr717741",
"&&1ehhhu5ugugu5huaks#==*==677w7,&&48hkhheihgjuqjuikh%,,*=67qqr7,",
"tq5ig88>#;33e2;5**,7=667tpptllsuu88iiuu4&25eu52e,<7e177wsfvdmmkd"
};
