/* XPM */
static char *_528031268891[] = {
/* columns rows colors chars-per-pixel */
"64 64 101 2 ",
"   c #1A1B15",
".  c #1A1F19",
"X  c #221F16",
"o  c #221F18",
"O  c #1D221B",
"+  c #1E281D",
"@  c #262217",
"#  c #23251D",
"$  c #2A251D",
"%  c #24291E",
"&  c #2A291F",
"*  c #34261E",
"=  c #35281F",
"-  c #1F2A21",
";  c #242722",
":  c #2A2721",
">  c #252B23",
",  c #2C2C24",
"<  c #262C28",
"1  c #2B2F29",
"2  c #322721",
"3  c #342C24",
"4  c #392D24",
"5  c #332F28",
"6  c #382F28",
"7  c #253127",
"8  c #2B3126",
"9  c #26312A",
"0  c #2D332B",
"q  c #2E382E",
"w  c #333127",
"e  c #3B3127",
"r  c #34342C",
"t  c #3B342B",
"y  c #33392E",
"u  c #3B392E",
"i  c #263530",
"p  c #2B3631",
"a  c #2D3B33",
"s  c #2C3D3A",
"d  c #323730",
"f  c #3A3731",
"g  c #343B33",
"h  c #3B3C33",
"j  c #333E39",
"k  c #393F38",
"l  c #40362D",
"z  c #40392F",
"x  c #413D34",
"c  c #443F39",
"v  c #2F443E",
"b  c #364036",
"n  c #3C4136",
"m  c #3B4837",
"M  c #35433B",
"N  c #3C443B",
"B  c #3D493E",
"V  c #424136",
"C  c #42443B",
"Z  c #49453C",
"A  c #424A3E",
"S  c #49493E",
"D  c #334641",
"F  c #394640",
"G  c #374942",
"H  c #3D4C43",
"J  c #3C4E49",
"K  c #3E5046",
"L  c #3E524A",
"P  c #3E5250",
"I  c #434640",
"U  c #434D43",
"Y  c #4A4D42",
"T  c #404F48",
"R  c #4C4F48",
"E  c #504D43",
"W  c #435246",
"Q  c #495245",
"!  c #43544A",
"~  c #4A554B",
"^  c #45594D",
"/  c #4A594D",
"(  c #515D4F",
")  c #535547",
"_  c #435651",
"`  c #495751",
"'  c #455953",
"]  c #4A5B53",
"[  c #465D5A",
"{  c #495E5A",
"}  c #515D54",
"|  c #4C6057",
" . c #47605D",
".. c #4B625D",
"X. c #526054",
"o. c #51645B",
"O. c #546A5F",
"+. c #58695F",
"@. c #476160",
"#. c #4A6360",
"$. c #546A61",
/* pixels */
"s G G P L P L L ! ! Q U C C r # y d d g b b N M B B m B m m n - K L L L ' ' ' | o.! X.! Q C C # 5 y d j U B B B n B A A m m m b ",
"M [ [  ...O.O.$.+.| o./ U Y x y N d N H H F T / ^ ^ ^ Q Q W S 7 B P ' | ..O.O.o.O.o.X.X.~ I Z y h f h T B B H ^ ^ ^ ^ ^ ^ Q S b ",
"D [ [ [ .... .O.O.o.| ] U N y f k f I H H ! H J ! W Q ! ! W A 9 K P '  ..... ...$.O.o.{ ~ U h w k y N U H U L H ! ! W W A ^ A m ",
"G { [  . . . .......o.| } ~ h 1 N n H H K H L ^ ! L ! ! Q W S 0 K  . . . . . . .#...o.} ~ W S , h N B H H H L L L L ! W / A A m ",
"s [ #.#.{  . . .#.o...o.} / n , k N N K T J P _ L L ! ! ! W Q q G K .. . .......#.#...o./ I Y 0 f b N H T W L _ P ! L ! ^ ^ A m ",
"G  .{ #.@.[ #. .[ #...o.` ! n ; g B H H T ` _ _ ' L J ! ! R W 0 B  ... ... . . . .#.#.o.} U U , 0 n B H H ! _ _ _ J _ ! Q Q W A ",
"G ..{ @.#. .@.@.#. .o.{ ` ~ N > d g I T H _ ' _ _ L L ! W W Y a B '  . . . . .@. .{ ..| } ! U 0 0 a n K K L ' ' _ _ ! T ^ Q W m ",
"D _ P { @.[ @.@.#...{ ~ U Q h : 0 y T ! ! ' [ ' L G L ! U U I 0 H L P [  . .@.@.#.#.| ] T Z Y : 0 0 B ! L ^ ' [ _ J G H T W S n ",
"i J ' [ [ #.@.#. .{ ` } Y S x t C U R W ^ P _ ' _ P T T F n k 0 b M P  .[  .#.@. ...` ` ~ Z I w h C W W ^ P ' ] ' P L H U N k f ",
"j ` ' [ [ [ #.#.#.{ ` / k V h h n d ! L L L J ! _ _ L T N I k ; F ^ ' [ [ [ #.#.#...` } Y k Z t C y N ^ ! P ! G ' L L L H N I p ",
"F ' ` _ ' [ [ ' [ [ ` U N N f # 0 0 B T K T ! J P ^ _ T U N R 1 N ^ ' _ ' ' [ _ _ ] { Q I d k : , 0 g U H L D j J L L L T F I B ",
"j T T T J ' [ P ` ` / N N C 0 > k g n U ! T H J J _ ! H F N I 0 N H U T H ! { ` G ! ` U d r r ; y g n N T T U T H H H F F N N N ",
"5 5 f U U ~ ! ! U H T I k w w 6 u h h C k N U H M M j g k d N 1 N r 8 V Q Y T U I F F k C t 6 3 t z u V n N H U I F M j k f k j ",
": I c C C Q } R k Y N I t t l l e 3 x S Y k k I U F p g N 1 k 0 h r E h A h f C k U g y t t l l t e e Z Y Z d N T F p < I d d j ",
"X h f y h y f r r f 5 r $ e 3 4 = 3 w u x w < p 0 d 1 1 f # y ; > , C 3 u u 0 t 3 k , 3 X 5 4 6 e 4 w t f x < 1 p 1 ; ; r , > 0 ",
"5 t t h C y C h h 3 y x 3 4 4 4 * = t x t 3 1 0 1 0 ; ; 5 > 1 ; C t t t V y h y y t , V 5 3 4 4 = = 3 n z 6 1 i 1 0 1 ; 5 > 0 < ",
"u C k C S u f y n e 8 V e e 4 2 * 4 r h Y f d j d a 0 f N 0 d 1 Y h C h Y N N n k x : x f 6 4 4 = = e u Z C y j j j j 0 I h j g ",
"w u n N k k b r & & 8 w 3 t * 3 4 4 5 r f f j M M s j M g g g > V u u C n n N N h > 1 d 3 5 3 2 4 3 w r y g g M s M M j g g N M ",
"h N n I B N N n V n n h y h 5 $ 3 : y k a N H M M B M B M j j > h C C N H N n N n N n h f t z $ 5 5 , k M j B G F G F G M B M M ",
"f B N N B B m A A A n V h h t 5 u y g j M F F F H G G M F N n 1 C n N N N B B B N N N n n h x 5 f r g N B v G K H G F H H F F a ",
"y A B B A B B A A A A V x Z x C Y d N N B B v H B G K B G F C 8 N A C N B H H B H U C C C C c x Y c y N H G G G K G v B L G H M ",
"b B B A B A B A A B A n V x t 3 f g N F B F H H H H H K F N B 7 A U A A W B W W U B A n V x l 3 r f k H H H H K K K G B H H F M ",
"g B B ! A B W B W B m C z x h : : k I H H H H K K K H H H F C > A U I B ! K W K W T B A h h C 5 , 5 C H ! K K L L L L L K H U M ",
"b U W ^ W B W W W W I A S x r y y r m H K W K L W K K K W T A 8 U W U W W W L L Q ! U A Y Z f r f , b U K ! L L ^ L L K L K Q b ",
"b T ! ! W ^ L K W K A B m A f r h y A W W ^ L ! ! ! K K ! ~ U 7 U W W ! ^ ! ! L L ! ! A B A k 5 n m A A A ^ ^ K L W W W K Q ^ g ",
"M ^ W ! L ! ^ K ^ K K A A U C f Y A Q A Q Q ! ! ! ! ! ! ~ ~ U 0 Q W K W W ! ^ L ! L ! K A A R r V A A A W W ^ K L ^ ^ ^ ^ ~ Q b ",
"F ^ W ^ ! ! ^ ^ ^ A W A A C h f S n A A W ^ ^ ^ ^ ^ ^ Q W ~ U 8 W W ^ ! K K W L W ! K W K N Y r A A ^ A ^ ^ L W W ^ ^ / ! Q Q y ",
"F ^ W ^ ! ! ^ ^ ( ^ ^ B j n c f n & 0 S W W ^ ^ ! ^ ^ ^ ^ ~ Y 7 U W ! ! ^ ^ ^ K L W ! ^ m g C y n m A A A A W ^ ^ W W W U ~ S w ",
"D ` ! ^ L ! ^ ^ ^ ^ W A q m h h Z e 8 n W W ^ ^ W ! ^ ^ Q ~ Y 0 W W K L K ^ ^ K ^ L ^ ` M d C f V V m A W W W W W W W W ~ Q Y u ",
"U { ` ' ^ ^ ^ ^ ^ ^ Q W g g : # r n V y m / ^ ^ / ^ / / ~ ~ m y / W ^ L ^ ^ ^ ^ ` ^ ^ ` N p r @ 3 y A S A A W Q ^ Q Q W Q W Q u ",
"H ` ~ ^ ! K ! ^ A ^ m b b y . # y h h n n B U U B m B S A A y % ( W ! ^ K B L ^ ' ~ ! M j f ,   r n b m n n A m m y y A A A C , ",
"9 s s a a a a a m b q q y > ; O y y 0 0 y b - + q q 0 0 % 8 8 % a i a b v v v v M M a q 0 0 % O % 8 0 8 y b % , 0 m m b 8 % y > ",
"D ' ' ] ..o.O.o.} ` } Q ~ ~ n , Y A B B A ~ X./ ( ( Q / A W W 0 B G T _ ' ! ` { ] ' ] / ~ ~ ~ , d M n N B Q W Q ~ X.X.( Q W Q m ",
"D ' ' ' [ .. ...$.+.} / I Y k , d y b m B m / / W W W A A A A 7 G L J P J J ! ^ ^ ^ ] / ! A Z 7 f g g M m B W ~ / A W B W A A m ",
"D P [ ....#.#.+.$.O.o.` Y C h h n y K B B K K W ^ ^ W ^ ^ A S + q H ^ _ ^ ' ` ` ' ] ^ ] Q Y h f c y M U H H H H ^ ^ ^ ^ Q m Q m ",
"J [ [  . .....#...O.| ] Y Y r r n b B B K K K ^ W W ^ ^ ^ S A q W L J L _ _ ^ ' ] ' ] ` ~ U C 3 h k N H H K ! ! W W W W ^ Q Q y ",
"v ' #.#.#. .{ #...O.o.] Y Y n , k N H H B K L L K K ^ K Q W A q W L ' ! H ] [ ' _ _ ' ` ! Q Y , k k B H H H J ! ^ L K ^ ^ W A m ",
"v [ ..#. . .{ { ....#.} ! U N ; n m B W ^ L P ^ ^ K K K ~ Q W 0 B / o.| _ ' ' ' [ _ ' ^ ~ U U 0 0 N N H U ^ _ P ^ L L K W Q Q m ",
"L ....#. . .{ @.{ ..$.} ( Y b % n A B K K P ^ [ P L ^ ^ ! U U 0 K / ' ' ' ' ' ' ' ' ` ^ { Q Y , 1 M N W H L ` _ [ L ^ K ^ A Q m ",
"G  .P  .[ #.#.[ { { { ] ! Y n # b m H L L P [ _ _ K K K W W A r K ^ ' ^ ' ' ' ' ' ' ` ~ ~ U Y 8 0 0 N H ! L ' [  .L B W W ^ A m ",
"v J _ [ @.@.@.@.{ ] ` / I Z u # y A T K ! _ [ _ ! J J J I n C 8 b H L ' [ ' _ [ ' ] ^ ~ Q Z Z : r k U T L ! ' [ P L H L H B C N ",
"j L { { [ @.#.#...[ ~ } I S x C A N ! ! ^ L _ _ _ ! J T F C k > n H _ ' P ' ' ' ' ` ^ ` R C I x A n U ! ^ _ ' _ | L L K H N N 1 ",
"J ` ' ' { { { { { | ~ ~ k f y , w 0 U W K ! M G ! T T T I I I > F _ ^ _ _ _ _ ] ] ` ! ~ U y h 3 r , b ! J ! ! F L L L K U F U k ",
"D ` _ T ! ' ' J L ` ~ N h y 5 : h g N T ! H F H T J H J I N T y N R _ ! ! ^ ] ^ H ! ~ U j f h : d f N I T J J H K K K H I F I N ",
"g d n U R ` ` R F T U k f 5 & 3 u u k B N I ! T G F F N k k N r C g f N U Q / ~ H H U I k r 2 $ w f f n I B T T T F U F M j N j ",
"0 h u S I n N N N A y k c u l l u u u A N k N I I j j d k 0 k 0 h d h x Q C n n k U j f k t 3 3 2 5 , C C n g B F F j i N d k k ",
"$ S V h h r h h k C , , $ t e e 3 4 e A Y f d N j j k d k : y 1 r 5 E t n y r V r C r r $ l 3 4 * 4 2 c Z C r j k p < ; k 5 1 j ",
"$ r w w u r r 5 3 w , 3 $ e e e 4 4 r e t , ; 9 < 0 ; ; 5 < 0 # , 5 f 5 u y r y , r , 5 @ t e 4 2 2 , w t t ; < 0 0 0 O 5 ; < < ",
"V V u V Y V Z V V w e A 3 e 4 4 2 4 u C c t d j N B d 0 k f g 0 ) V x u S A A S A x & S u t t 4 l = $ Z Z x k ~ U ~ o.k h u A a ",
"r u V V h n y n w = & r t e e = 3 6 5 w S r g j s M M g n 0 d ; V u h x n h g k h y @ w w t 4 3 4 l 5 h I n b H H M N a k k N a ",
"k n n B C N n n y w u r 5 w @ & 3 , 0 g d N j M M F H F M N N ; n V b A C n N n V y r h r t 6 3 3 5 : k N M B K H G G B N B I j ",
"k C N m F B N C A A n n h C u & w r g n H F F M M G H W K H n , n V N N B B N A C C n k h h f $ 5 > 1 k F L H W K H M H H H N a ",
"h C n N H F m A A V A n h x h x V y k U K K K B H H ! K W H I 8 C N N N B B N N A A A n n h C t Z h g M B H K K L G H B N H n g ",
"g B B U H F H U B A A V C Z l x S y N T K K K L L K K K K H A , n A I B K B H B B B A A C Z c f Z h f H H K H K H K K B H F B b ",
"b A B H U H T m A B A V h u t $ , k B B W K K W ^ W K ! K H C 7 N A B T B K K B B A W A A n h , $ y N B W K H L ^ L K H H B B g ",
"b H W W K W K W W W A S V x u w r f B K W L L L ! ! W K K W I 7 B B H W K L B B W W B W A A V r h Q A H W K L L ^ L K K K U W n ",
"m K ! W W K W K K K B B A V r r t 0 B W ! Q ! ! ! ^ ^ H W ~ Q 9 U H T W ! W W K W K K B Q A u 8 A ^ W A W K K K L ! ! K H ! / g ",
"M ^ L W ^ W ^ K K W W K A A h y A N U ! W ! W ! ! W H H ! / A 8 W U ! ! ! ! ^ ! K W A K B B A w m A W ^ K ^ K K W L W T ^ ~ ~ g ",
"H ^ L ^ L K W ^ W W B W A A A n ) ~ W W L W ! W W H ~ ~ ~ ~ Y 0 ~ ! ! ! ! L ! ! ^ W W B Q m Q y S S A A W W K ^ ! ! / ~ ^ ~ Q n ",
"N ' W ^ K ^ ^ ^ ^ ^ W A n n h 8 b A W ^ W ^ ! ! W B W Y W Q h 7 ^ ^ ! W ^ ! ! ^ ^ ^ ^ A B m n r n y 8 A ^ W A ^ ^ ^ ~ Q U Y Y r ",
"G ' ! ! L ^ ^ ^ ~ ^ ! U q I C x Z r N Q W ^ ^ ^ W W Q Y ) Q V , ! ^ ^ L L L ^ ^ / ^ Q W k g Y z V n w S / W W ^ Q W W Q Q Q S u ",
"F ] ^ ^ ! ^ ^ ^ ^ W ~ U y f w , f y N U W W U Q Q Q A Z S S Z w ^ ' ^ ' ^ W ^ ^ ^ Q W / N 0 f , u u m A A A ^ A Q Q Q Q Q Y S u ",
"! | | ] ^ ^ | / / ~ ! U N j # # h C A m Q W W U A y n S S S h y o.| | | / ^ / ( / / ~ ! F k 0   t n A S S A W W W W Q Q Q S S t ",
"a G B M v M M M N B a 9 0 ; . # 0 y r y y y g y y , r h t u 0 ; B B B v m v v m M B M 9 0 , %   7 y 8 b y y y y 0 y y n y y u @ "
};
